<svg xmlns="http://www.w3.org/2000/svg" height="2200" width="3300"><defs><clipPath id="a" clipPathUnits="userSpaceOnUse"><path d="M9362.78 1602.2c-410.75 0-780.28 111.8-1165.65 315.2h2484.07c-507.6-215.8-931.28-315.2-1318.42-315.2m-3278.34 1842c-660.91 507.9-1461.06 1096.6-2488.99 1734.3-4511.591 2798.89-31.53 4209.72 1050.23 4933.1 1081.74 723.4-1006.32 2380.5 555.71 3671.4 698.49 577.3 1382.57 801.9 2014.2 801.9 1294.07 0 2366.79-944 2884.11-1733.7l-1470 9h-2.6c-235.53 0-423.4-197.1-411.72-432.7l113.21-2337.9-1891.14-49c-10.31.7-20.4 1.1-30.37 1.1-267.32 0-412.76-245.58-412.76-373.58l90.12-6223.92M20025.6 5611c-78.6 23.1-159.6 38.3-240.6 45.1-16.2 1.4-32.4 2.4-48.7 3l96.7 4089.17c3.9 166.61-60.7 327.53-178.8 445.23-114.3 114-269.2 177.8-430.3 177.8-5.2 0-10.5-.1-15.8-.2l-2086.3-54 49.6 1019.9-487.9 539.1c37.2 29.5 74.5 59.5 112 90.1 985.4 804.2 1827.4 1117.2 2512.6 1117.2 1889.2 0 2585.2-2381.4 1796-3418.11C20239 8529 20457.6 8324.62 21066.4 7137c-396-482.17-741.7-1003.3-1040.8-1526"/></clipPath><clipPath id="c" clipPathUnits="userSpaceOnUse"><path d="M19411.9 1917.4H6344.7c-132.9 0-241.64 108.6-241.64 241.4l-18.62 1285.4-90.12 6223.92c0 128 145.44 373.58 412.76 373.58 9.97 0 20.06-.4 30.37-1.1l1891.14 49 14.28-294.97-1424.5-38.22c-6.03.24-12.14.36-18.37.36-219.25 0-559.64-150.44-571.39-549.33l102.6-6817.04c0-125.7 102.87-228.6 228.61-228.6H19186.3c125.8 0 228.7 102.9 228.7 228.6l20 798.9c63.3-55.6 142.2-95.8 240.4-105.8l-5.1-213.2-16.8-711.5c0-6.6-.2-13.2-.8-19.7-10.1-123.7-114.6-221.7-240.8-221.7m84.6 3725.8l100.5 4003.63c2.9 117.16-42.7 230.42-125.7 313.18-80.3 80.09-188.9 124.89-301.9 124.89-3.8 0-7.7 0-11.5-.1l-2050.1-55 14 287.3 2086.3 54c5.3.1 10.6.2 15.8.2 161.1 0 316-63.8 430.3-177.8 118.1-117.7 182.7-278.62 178.8-445.23l-96.7-4089.17c-15 .6-30 .9-45 .9-65.2 0-130.5-5.6-194.8-16.8"/></clipPath><clipPath id="e" clipPathUnits="userSpaceOnUse"><path d="M19186.3 2161.8H6659.82c-125.74 0-228.61 102.9-228.61 228.6l-102.6 6817.04c11.75 398.89 352.14 549.33 571.39 549.33 6.23 0 12.34-.12 18.37-.36l1424.5 38.22 368.05-7600.73h8015.48l381.4 7835.9 2050.1 55c3.8.1 7.7.1 11.5.1 113 0 221.6-44.8 301.9-124.89 83-82.76 128.6-196.02 125.7-313.18l-100.5-4003.63c-419.1-73.1-790.8-382.6-760.9-904.5 25.3-440.2 230.6-762.7 356.4-921.3 58.8-74 102.4-159 128-249.9 32.3-114.3 95.8-273.5 215-378.2l-20-798.9c0-125.7-102.9-228.6-228.7-228.6"/></clipPath><clipPath id="g" clipPathUnits="userSpaceOnUse"><path d="M20638.5 1534.1H5382.95c-41.27 0-75.04 33.8-75.04 75v509.7c0 41.3 33.77 75.1 75.04 75.1H20638.5c41.3 0 75.1-33.8 75.1-75.1v-509.7c0-41.2-33.8-75-75.1-75z"/></clipPath><clipPath id="i" clipPathUnits="userSpaceOnUse"><path d="M16726.4 2193.9H8710.92l-368.05 7600.73-14.28 294.97-113.21 2337.9c-11.68 235.6 176.19 432.7 411.72 432.7h2.6l1470-9 5732.9-35.1 850.9-940 487.9-539.1-49.6-1019.9-14-287.3-381.4-7835.9M9625.13 3351.4c-168.3 0-304.74-90.9-304.74-203.1 0-112.3 136.44-203.2 304.74-203.2h5817.67c168.3 0 304.7 90.9 304.7 203.2 0 112.2-136.4 203.1-304.7 203.1H9625.13m0 794.2c-168.3 0-304.74-91-304.74-203.2 0-112.2 136.44-203.1 304.74-203.1h5817.67c168.3 0 304.7 90.9 304.7 203.1 0 112.2-136.4 203.2-304.7 203.2H9625.13m0 794.1c-168.3 0-304.74-90.9-304.74-203.1 0-112.2 136.44-203.2 304.74-203.2h5817.67c168.3 0 304.7 91 304.7 203.2 0 112.2-136.4 203.1-304.7 203.1H9625.13m0 1237.4c-168.3 0-304.74-90.9-304.74-203.1 0-112.2 136.44-203.2 304.74-203.2h5817.67c168.3 0 304.7 91 304.7 203.2 0 112.2-136.4 203.1-304.7 203.1H9625.13m0 794.2c-168.3 0-304.74-90.96-304.74-203.16s136.44-203.16 304.74-203.16h5817.67c168.3 0 304.7 90.96 304.7 203.16s-136.4 203.16-304.7 203.16H9625.13m0 794.15c-168.3 0-304.74-90.94-304.74-203.15 0-112.2 136.44-203.16 304.74-203.16h5817.67c168.3 0 304.7 90.96 304.7 203.16 0 112.21-136.4 203.15-304.7 203.15H9625.13m1917.67 1237.41c-115.6 0-209.3-90.95-209.3-203.15 0-112.21 93.7-203.16 209.3-203.16h3995.4c115.6 0 209.3 90.95 209.3 203.16 0 112.2-93.7 203.15-209.3 203.15h-3995.4m0 794.16c-115.6 0-209.3-90.95-209.3-203.15 0-112.21 93.7-203.16 209.3-203.16h3995.4c115.6 0 209.3 90.95 209.3 203.16 0 112.2-93.7 203.15-209.3 203.15h-3995.4m0 794.18c-115.6 0-209.3-91-209.3-203.2 0-112.2 93.7-203.1 209.3-203.1h3995.4c115.6 0 209.3 90.9 209.3 203.1 0 112.2-93.7 203.2-209.3 203.2h-3995.4m-6.2 923.4c-112.2 0-203.1-90.9-203.1-203.1 0-112.2 90.9-203.2 203.1-203.2h3878.5c112.2 0 203.1 91 203.1 203.2 0 112.2-90.9 203.1-203.1 203.1h-3878.5"/></clipPath><clipPath id="k" clipPathUnits="userSpaceOnUse"><path d="M16132.1 11380.9c-234.6 8.2-415 210.5-396.5 444.5l77.2 977.2 1360.1-1459.6z"/></clipPath><clipPath id="m" clipPathUnits="userSpaceOnUse"><path d="M15415.1 11108.3h-3878.5c-112.2 0-203.1 91-203.1 203.2 0 112.2 90.9 203.1 203.1 203.1h3878.5c112.2 0 203.1-90.9 203.1-203.1 0-112.2-90.9-203.2-203.1-203.2"/></clipPath><clipPath id="n" clipPathUnits="userSpaceOnUse"><path d="M11333.5 11108.3h4284.7v406.316h-4284.7z"/></clipPath><clipPath id="p" clipPathUnits="userSpaceOnUse"><path d="M15538.2 10184.9h-3995.4c-115.6 0-209.3 90.9-209.3 203.1 0 112.2 93.7 203.2 209.3 203.2h3995.4c115.6 0 209.3-91 209.3-203.2 0-112.2-93.7-203.1-209.3-203.1"/></clipPath><clipPath id="r" clipPathUnits="userSpaceOnUse"><path d="M15538.2 9390.71h-3995.4c-115.6 0-209.3 90.95-209.3 203.16 0 112.2 93.7 203.15 209.3 203.15h3995.4c115.6 0 209.3-90.95 209.3-203.15 0-112.21-93.7-203.16-209.3-203.16"/></clipPath><clipPath id="t" clipPathUnits="userSpaceOnUse"><path d="M15538.2 8596.55h-3995.4c-115.6 0-209.3 90.95-209.3 203.16 0 112.2 93.7 203.15 209.3 203.15h3995.4c115.6 0 209.3-90.95 209.3-203.15 0-112.21-93.7-203.16-209.3-203.16"/></clipPath><clipPath id="v" clipPathUnits="userSpaceOnUse"><path d="M15442.8 7359.14H9625.13c-168.3 0-304.74 90.96-304.74 203.16 0 112.21 136.44 203.15 304.74 203.15h5817.67c168.3 0 304.7-90.94 304.7-203.15 0-112.2-136.4-203.16-304.7-203.16"/></clipPath><clipPath id="x" clipPathUnits="userSpaceOnUse"><path d="M15442.8 6564.98H9625.13c-168.3 0-304.74 90.96-304.74 203.16s136.44 203.16 304.74 203.16h5817.67c168.3 0 304.7-90.96 304.7-203.16s-136.4-203.16-304.7-203.16"/></clipPath><clipPath id="z" clipPathUnits="userSpaceOnUse"><path d="M15442.8 5770.8H9625.13c-168.3 0-304.74 91-304.74 203.2 0 112.2 136.44 203.1 304.74 203.1h5817.67c168.3 0 304.7-90.9 304.7-203.1 0-112.2-136.4-203.2-304.7-203.2"/></clipPath><clipPath id="B" clipPathUnits="userSpaceOnUse"><path d="M15442.8 4533.4H9625.13c-168.3 0-304.74 91-304.74 203.2 0 112.2 136.44 203.1 304.74 203.1h5817.67c168.3 0 304.7-90.9 304.7-203.1 0-112.2-136.4-203.2-304.7-203.2"/></clipPath><clipPath id="D" clipPathUnits="userSpaceOnUse"><path d="M15442.8 3739.3H9625.13c-168.3 0-304.74 90.9-304.74 203.1 0 112.2 136.44 203.2 304.74 203.2h5817.67c168.3 0 304.7-91 304.7-203.2 0-112.2-136.4-203.1-304.7-203.1"/></clipPath><clipPath id="F" clipPathUnits="userSpaceOnUse"><path d="M15442.8 2945.1H9625.13c-168.3 0-304.74 90.9-304.74 203.2 0 112.2 136.44 203.1 304.74 203.1h5817.67c168.3 0 304.7-90.9 304.7-203.1 0-112.3-136.4-203.2-304.7-203.2"/></clipPath><clipPath id="H" clipPathUnits="userSpaceOnUse"><path d="M7297.8 1477.8c-27.09 0-51.01 17.5-55.67 42.1l-879.32 4654.7c-5.19 27.5 15.55 53.5 46.34 58.2 30.79 4.6 59.95-13.9 65.15-41.4l879.31-4654.7c5.19-27.5-15.55-53.5-46.33-58.2-3.18-.5-6.36-.7-9.48-.7z"/></clipPath><clipPath id="J" clipPathUnits="userSpaceOnUse"><path d="M4331.32 1477.8c-3.7 0-7.46.3-11.23 1-30.6 5.5-50.41 32.2-44.24 59.5l1036.56 4594.1c6.17 27.3 35.93 45.2 66.59 39.5 30.6-5.5 50.41-32.1 44.24-59.4L4386.68 1518.3c-5.41-23.9-28.99-40.5-55.36-40.5z"/></clipPath><clipPath id="L" clipPathUnits="userSpaceOnUse"><path d="M6626.86 5024.3H5124.21c-31.21 0-56.52 22.6-56.52 50.5s25.31 50.5 56.52 50.5h1502.65c31.21 0 56.52-22.6 56.52-50.5s-25.31-50.5-56.52-50.5z"/></clipPath><clipPath id="N" clipPathUnits="userSpaceOnUse"><path d="M6599.61 5024.3H5151.5c-30.09 0-54.48 22.6-54.48 50.5s24.39 50.5 54.48 50.5h1448.11c30.09 0 54.48-22.6 54.48-50.5s-24.39-50.5-54.48-50.5z"/></clipPath><clipPath id="P" clipPathUnits="userSpaceOnUse"><path d="M6626.86 4182.7H5124.21c-31.21 0-56.52 22.6-56.52 50.5s25.31 50.5 56.52 50.5h1502.65c31.21 0 56.52-22.6 56.52-50.5s-25.31-50.5-56.52-50.5z"/></clipPath><clipPath id="R" clipPathUnits="userSpaceOnUse"><path d="M6763.3 4182.7H4941.55c-31.22 0-56.53 22.6-56.53 50.5s25.31 50.5 56.53 50.5H6763.3c31.21 0 56.52-22.6 56.52-50.5s-25.31-50.5-56.52-50.5z"/></clipPath><clipPath id="T" clipPathUnits="userSpaceOnUse"><path d="M6626.86 3341H5124.21c-31.21 0-56.52 22.6-56.52 50.5s25.31 50.5 56.52 50.5h1502.65c31.21 0 56.52-22.6 56.52-50.5s-25.31-50.5-56.52-50.5z"/></clipPath><clipPath id="V" clipPathUnits="userSpaceOnUse"><path d="M6937.3 3341H4756.68c-31.22 0-56.53 22.6-56.53 50.5s25.31 50.5 56.53 50.5H6937.3c31.22 0 56.53-22.6 56.53-50.5s-25.31-50.5-56.53-50.5z"/></clipPath><clipPath id="X" clipPathUnits="userSpaceOnUse"><path d="M6626.86 2499.4H4581.38c-31.22 0-56.53 22.6-56.53 50.5s25.31 50.5 56.53 50.5h2045.48c31.21 0 56.52-22.6 56.52-50.5s-25.31-50.5-56.52-50.5z"/></clipPath><clipPath id="Z" clipPathUnits="userSpaceOnUse"><path d="M7078.05 2499.4H4581.38c-31.22 0-56.53 22.6-56.53 50.5s25.31 50.5 56.53 50.5h2496.67c31.22 0 56.53-22.6 56.53-50.5s-25.31-50.5-56.53-50.5z"/></clipPath><clipPath id="ab" clipPathUnits="userSpaceOnUse"><path d="M5275 5324.9s-36.67-57.8-45.89-219.7c-.86-15.1 11.09-27.9 26.19-27.9h286.8c11.54 0 19.78 11.3 16.09 22.2-16.81 49.8-67.63 171.1-181.01 240.4z"/></clipPath><clipPath id="ad" clipPathUnits="userSpaceOnUse"><path d="M5262.54 5434.5l16.22-136c1.41-11.7 10.6-21.1 22.34-22.5 15.69-1.8 38.49-3.1 60.65.6 20.14 3.3 34.64 21.3 34.64 41.7v131.3z"/></clipPath><clipPath id="af" clipPathUnits="userSpaceOnUse"><path d="M5984.61 5339.9s-54.89-85.4-53.72-202.5c.28-27.6 23.38-49.5 50.97-49.5h445.44c20.85 0 29.32 26.7 12.26 38.7-84.3 59.2-249.97 169.8-369.79 213.3z"/></clipPath><clipPath id="ah" clipPathUnits="userSpaceOnUse"><path d="M5938.75 5486.8l34.59-168c3.87-18.8 22.26-31.5 40.98-27.3 11.38 2.6 24.81 7.4 39.16 16.4 13.63 8.5 20.54 24.7 17.76 40.6l-35.79 203.5z"/></clipPath><clipPath id="aj" clipPathUnits="userSpaceOnUse"><path d="M5326.1 7822.39s-120.31-106.07-142.95-233.68C5160.51 7461.1 5247.3 5387 5247.3 5387s120.3-20 182.31 17.6c0 0 73.56 1346.04 129.47 1657.09 0 0 293.21-1394.39 374.45-1646.29 0 0 115.89-14.1 153.27 7.9 0 0-76.8 1807.52-173.31 2128.86z"/></clipPath><clipPath id="al" clipPathUnits="userSpaceOnUse"><path d="M5555.58 7104.65c-6.16 0-11.78 4.13-13.4 10.36l-49.74 190.8-105.84 67.88c-6.44 4.13-8.32 12.71-4.19 19.14 4.13 6.42 12.73 8.31 19.14 4.17l110.4-70.81c2.93-1.87 5.05-4.78 5.93-8.15l51.1-196.04c1.93-7.41-2.51-14.97-9.91-16.89-1.16-.32-2.34-.46-3.49-.46z"/></clipPath><clipPath id="an" clipPathUnits="userSpaceOnUse"><path d="M6513.33 9020.84c-506.46 42.05-638.83-62.76-638.83-62.76l243.39-384.23s497.64 9.83 854.21 284.66c-66.73 71.87-113.08 151.29-142.8 213.14-91.95-38.21-197.84-60.61-315.97-50.81z"/></clipPath><clipPath id="ap" clipPathUnits="userSpaceOnUse"><path d="M7306.43 9764.24c-.69 16.23-22.68 20.65-29.58 5.94l-64.62-137.9a143.657 143.657 0 01-11.47-85.48l22.67-80.26c6.78-39.14-3.44-79.25-28.25-110.27-59.38-74.23-185.85-209.81-365.88-284.62 29.72-61.85 76.07-141.27 142.8-213.14 130.84 100.84 242.71 237.31 304.01 422.13 29.36 9.02 48.99 36.67 47.82 67.37z"/></clipPath><clipPath id="ar" clipPathUnits="userSpaceOnUse"><path d="M6680.03 8798.08c-178.29 192.11-517.89 278.91-714.51 314.56-86.14 15.62-171.05-32.31-201.57-114.36-88.49-237.86-329.14-856.68-375.78-963.03-38.26-87.25-78.22-172.47-103.61-225.75-15.17-31.82-1.92-69.91 29.84-85.22 165.43-79.74 463.1-169.95 583.77-205.14 26.55-7.74 52.98 12.19 52.98 39.83 0 23.45 6.37 46.47 18.43 66.58l457.04 761.6c284.86-315.85 534.33-344.74 725.97-275.6-32.22 99.58-53.31 199.36-63.42 299.32-283.12 48.5-409.14 387.21-409.14 387.21z"/></clipPath><clipPath id="at" clipPathUnits="userSpaceOnUse"><path d="M7557.11 8463.87l-51.09 68.13c-165.41-113.6-303.67-140.53-416.85-121.13 10.11-99.96 31.2-199.74 63.42-299.32 252.46 91.08 404.52 352.32 404.52 352.32z"/></clipPath><clipPath id="av" clipPathUnits="userSpaceOnUse"><path d="M7521.08 8462.64l287.85-11.22 265.02 148.02c-38.04 23.85-253.16-24.89-253.16-24.89s-224.89 34-285.76 34.09c-50.55.06-43.33-72.63-39.42-97.27.79-5.02 1.45-8.05 1.45-8.05z"/></clipPath><clipPath id="ax" clipPathUnits="userSpaceOnUse"><path d="M6235.97 9465.47l-151.88-370.6s174.5-120.79 314.9-109.29l75.8 333.24z"/></clipPath><clipPath id="az" clipPathUnits="userSpaceOnUse"><path d="M6492.51 9718.12c3.48-4.93 109.87-389.28 109.87-389.28l-220.75-56.09-154.96 349.32s207.61 178.55 265.84 96.05z"/></clipPath><clipPath id="aB" clipPathUnits="userSpaceOnUse"><path d="M6309.79 9568.99l67.18-190.27c.86-2.44 2.01-4.7 3.5-6.81 9.12-12.95 43.75-55.22 84.83-17.14 37.27 34.54 71.8 65.5 103.69 71.13 14.32 2.52 28.19-6.22 32.06-20.23 9.66-34.92 29.97-114.02 37.12-185.44 1.46-14.49-8.55-27.59-22.86-30.3-43.11-8.19-134.53-22.92-210.85-17.54-10.34.73-19.44 6.94-23.75 16.36-21.03 45.96-85.48 185.4-109.44 221.48-22.5 33.87-77.64 32.91-100.77 30.87-7.58-.68-15.04 1.77-20.76 6.79-20.23 17.73-58.74 63.01-4.58 117.22 11.34 11.34 11.04 29.64-.65 40.63-23.26 21.87-48.14 60.66-9.38 108.77 39.39 48.9 91.39 41.12 123.25 29.49 12.88-4.7 26.94.75 33.94 12.54 3.98 6.71 10.94 11.79 23 10.75 16.25-1.39 29.91 12.17 29.62 28.47-.56 31.33 10.65 70.91 65 87.82 96.43 30.02 156.56-63.15 162.52-132.66 5.96-69.52-100.44-96.12-163.01-91.43-47.57 3.57-82.89-43.58-97.09-66.39-4.5-7.23-5.4-16.08-2.57-24.11z"/></clipPath><clipPath id="aD" clipPathUnits="userSpaceOnUse"><path d="M6296.42 9341.2s-15.58 120.68-65.79 126.6c-50.2 5.91-99.06-35.35-49.15-103.09 62.08-84.26 114.94-23.51 114.94-23.51z"/></clipPath><clipPath id="aF" clipPathUnits="userSpaceOnUse"><path d="M18984.7 10548.2s-108.4-5.7-121.7-228.7c0 0 251.3-225.3 590.8-278.9 25.5-4.1-35.6 173.9-44.8 198-43.7 114.8-181.4 188.7-424.3 309.6z"/></clipPath><clipPath id="aH" clipPathUnits="userSpaceOnUse"><path d="M17764 10810.4h228.8s702 775.3 1162.4 853.5c0 0 320.5-409.1-17.1-1173.5-27.1-61.5-103.1-88.8-159.7-52.7-17 10.9-29.2 25.4-36.5 43.6l27.1 652.6s-598.8-523.7-702.9-624.8c-104.1-101-633.1-39.4-502.1 301.3z"/></clipPath><clipPath id="aJ" clipPathUnits="userSpaceOnUse"><path d="M19975.3 9182.61c-95.9 83.99-248.6 178.23-469 205.25l-74.6-45.6s47.5-70.13 134.4-144.21c79.8-46.36 203.1-109.16 305.3-122.77 99.3-13.23 114 46.8 103.9 107.33z"/></clipPath><clipPath id="aL" clipPathUnits="userSpaceOnUse"><path d="M17772.4 10644.9l1071.1-11.6s611.6-506.1 722.6-1277.73c0 0 18.4-56.76-92.2-66.47 0 0-369.8 241.53-610.9 668.56-295.6 523.64-771.3 336.64-771.3 336.64-577-196.6-774.6 95.4-779.4 164.5z"/></clipPath><clipPath id="aN" clipPathUnits="userSpaceOnUse"><path d="M17797.7 11507.7s115.3-577.9 680.3-806.4l200.9 23.6 47.4-75.6-471.3-15s-403 159.6-616.5 594.5c-7 14.3-124.6 257.1 159.2 278.9z"/></clipPath><clipPath id="aP" clipPathUnits="userSpaceOnUse"><path d="M17859.5 10654.3s-131.1 356.5-159.3 702.8c0 0 95.9 82.4 155.9 118 19.4 11.5 26.7 35.9 16.9 56.2-44.1 91.3-310.6 449.9-330.6 454.9-108.6 27-553.7 238.7-867.2-190.1-134.5-184.1 26.7-750.6 637.1-1337.3l20.3-3.9c68.4-13.1 139.3-2.7 201 29.5z"/></clipPath><clipPath id="aR" clipPathUnits="userSpaceOnUse"><path d="M17354.3 11279s364.2-431.4 830-494.4c0 0 120.4 109.7 209.9 70.5 89.5-39.1 212.2-212.1 212.2-212.1h-598s-565.5 19.9-848 362.8c22.7 120 90.8 191.7 193.9 273.2z"/></clipPath><clipPath id="aT" clipPathUnits="userSpaceOnUse"><path d="M17141.7 12288.7l-79.7-265.9c-3.6-12.1.9-25.3 11.4-32.5 38.4-26.3 138.7-78.6 276.2-27.8 15.8 5.8 26.6 20.5 27.9 37.3l18.9 231.6z"/></clipPath><clipPath id="aV" clipPathUnits="userSpaceOnUse"><path d="M17608.5 12504s-39.2-275.6-145.1-360.3c-105.8-84.8-312.1-21-381.7 186.8l138.8 355.2z"/></clipPath><clipPath id="aX" clipPathUnits="userSpaceOnUse"><path d="M17204.8 12455.8c8.1-2.6 16.5 2.6 17.8 11 3.8 25.4 13.3 75.7 32.6 110 0 0-10.1 36.2 91.4-18.4s253.9-134.9 343.6-87.1c87.5 46.6 176.1 281-55.1 237.6-8.8-1.7-16.9 5.3-16.2 14.3 2.8 38.5-1 127.1-90.8 155.6-83.9 26.6-129.9-11.3-148.9-34.2-5.6-6.7-15.9-6.6-21.2.3-25.2 32.9-93.5 102.8-194.1 58.5-82.9-36.5-95.8-87.6-94.4-119.4.4-10.3-10-17.3-19.4-13-25.4 11.7-66.2 17.8-105.3-31.2-54-67.7 23.2-126.4 46.4-141.9 3.8-2.5 6.1-6.6 6.2-11.2.2-35.2 5.7-188.9 82.7-275.5 6.6-7.5 19-5.3 22.9 3.9l59.2 141.3c2.8 6.5 10.1 9.9 16.9 7.7z"/></clipPath><clipPath id="aZ" clipPathUnits="userSpaceOnUse"><path d="M17206.1 12427.2s-36.2 147.4-91.2 99.5c-55-47.8 14.3-153.2 77.3-173.3z"/></clipPath><clipPath id="bb" clipPathUnits="userSpaceOnUse"><path d="M18576.3 10609.6l268.5 895.4c11 36.5 43.4 62.4 81.5 65.1l362.5 24.8c36.8 2.5 64.2-33.5 52-68.4l-300.2-855.1c-9.6-27.6-34.4-47-63.4-50l-357-39.6z"/></clipPath><clipPath id="bd" clipPathUnits="userSpaceOnUse"><path d="M18620.2 10581.8h-1.8l-760.6 38.5c-18.8.9-33.3 17-32.4 35.8 1 18.8 17.1 33.5 35.8 32.3l760.7-38.5c18.8-.9 33.3-16.9 32.3-35.7-.9-18.3-16-32.4-34-32.4z"/></clipPath><clipPath id="bf" clipPathUnits="userSpaceOnUse"><path d="M17700.2 11350.3c-3.8 0-6.8 3-6.8 6.8.5 158.8-60.8 369.7-61.4 371.8-1.1 3.6 1 7.4 4.6 8.4 3.7 1.1 7.4-1 8.5-4.6.6-2.1 62.4-214.8 61.9-375.7 0-3.7-3-6.7-6.8-6.7z"/></clipPath><clipPath id="bh" clipPathUnits="userSpaceOnUse"><path d="M17354.3 11272.2c-2.1 0-4 .9-5.4 2.6-1.7 2.1-168.1 213.6-225.3 358.7-1.4 3.5.3 7.5 3.8 8.8 3.5 1.5 7.5-.3 8.8-3.8 56.6-143.2 221.7-353.2 223.4-355.3 2.3-3 1.8-7.3-1.1-9.6-1.3-1-2.8-1.4-4.2-1.4z"/></clipPath><clipPath id="bj" clipPathUnits="userSpaceOnUse"><path d="M17120.4 10948.6l-5.1 2.2c-240.9 103.1-389.7 390.8-391.2 393.6-1.7 3.4-.3 7.5 3 9.2 3.4 1.7 7.5.4 9.2-2.9 1.4-2.9 146-282.2 379.4-385.2l24.4 34.5c2.2 3.1 6.5 3.8 9.5 1.7 3.1-2.2 3.8-6.5 1.6-9.5z"/></clipPath><clipPath id="bl" clipPathUnits="userSpaceOnUse"><path d="M18524.6 6771.84c-3.4 0-6.8.91-9.8 2.85-86.6 54.52-175.7 105.45-264.9 151.4-9.1 4.66-12.7 15.8-8 24.88 4.7 9.05 15.8 12.66 24.9 7.96 90.2-46.43 180.2-97.9 267.7-153 8.6-5.43 11.2-16.84 5.8-25.47-3.6-5.58-9.6-8.62-15.7-8.62z"/></clipPath><clipPath id="bn" clipPathUnits="userSpaceOnUse"><path d="M18075 7011.66c-2.5 0-5 .51-7.5 1.57-282 124.53-576.7 207.78-875.7 247.39-10.1 1.34-17.2 10.63-15.9 20.75 1.3 10.09 10.7 17.16 20.7 15.87 302.6-40.07 600.6-124.27 885.8-250.21 9.4-4.13 13.6-15.03 9.5-24.37-3.1-6.89-9.8-11-16.9-11z"/></clipPath><clipPath id="bp" clipPathUnits="userSpaceOnUse"><path d="M16190.9 7220.01c-8.3 0-15.8 5.62-17.9 14.03-2.4 9.91 3.6 19.92 13.5 22.37 3.3.83 337.6 82.24 764.7 67.11 10.2-.37 18.2-8.91 17.8-19.1-.3-10.19-8.6-18.88-19.1-17.8-421.6 14.72-751.2-65.25-754.5-66.06-1.5-.36-3-.55-4.5-.55z"/></clipPath><clipPath id="br" clipPathUnits="userSpaceOnUse"><path d="M18140.4 6564.44c-3.4 0-6.9.94-10 2.9-113.9 72.86-245.8 134.58-392 183.52-9.6 3.23-14.9 13.71-11.6 23.38 3.2 9.65 13.6 14.87 23.4 11.65 149-49.89 283.7-112.95 400.1-187.41 8.6-5.51 11.1-16.93 5.6-25.53-3.5-5.5-9.4-8.51-15.5-8.51z"/></clipPath><clipPath id="bt" clipPathUnits="userSpaceOnUse"><path d="M17458.8 6826.12c-1.3 0-2.5.13-3.8.38-612.2 126.47-1228.1 37.41-1234.2 36.49-10.1-1.3-19.5 5.47-21 15.55-1.5 10.09 5.4 19.5 15.5 20.99 6.2.92 628.6 90.92 1247.2-36.84 10-2.08 16.4-11.84 14.3-21.83-1.8-8.73-9.5-14.74-18-14.74z"/></clipPath><clipPath id="bv" clipPathUnits="userSpaceOnUse"><path d="M18273.5 6087.8c-3.8 0-7.7 1.3-11 3.7-85.3 64.1-184.7 121.5-295.4 170.6-9.3 4.1-13.5 15-9.4 24.4 4.1 9.3 15 13.5 24.4 9.3 113.3-50.2 215.1-109 302.5-174.7 8.2-6.1 9.9-17.7 3.7-25.9-3.6-4.8-9.1-7.4-14.8-7.4z"/></clipPath><clipPath id="bx" clipPathUnits="userSpaceOnUse"><path d="M17768.4 6338.7c-1.9 0-3.8.3-5.7.9-249.1 80.3-543.3 129.4-874.3 145.9-10.2.5-18.1 9.2-17.6 19.35.6 10.17 9.4 17.91 19.4 17.53 334.3-16.65 631.6-66.28 883.8-147.58 9.8-3.2 15.1-13.6 12-23.3-2.6-7.8-9.8-12.8-17.6-12.8z"/></clipPath><clipPath id="bz" clipPathUnits="userSpaceOnUse"><path d="M16244.6 6474.3c-9.3 0-17.3 7-18.3 16.5a18.384 18.384 0 0016.4 20.3c1.8.19 181.8 19.04 439.8 17.14 10.2-.07 18.4-8.41 18.3-18.61-.1-10.13-8.3-18.33-18.5-18.33h-.1c-256 1.7-433.8-16.7-435.6-16.9z"/></clipPath><clipPath id="bB" clipPathUnits="userSpaceOnUse"><path d="M20127.4 3077.1c-1.3 16.8-18.5 31.3-47.4 42.9 31.5 17.4 48.9 36 47.4 54.3-4.4 55.2-179.4 86.2-390.8 69.1-211.4-17-379.1-75.6-374.7-130.9 1.4-16.7 18.5-31.2 47.5-42.9-31.5-17.3-49-35.9-47.5-54.2 1.4-16.7 18.5-31.3 47.5-42.9-31.5-17.4-49-36-47.5-54.2 1.4-16.8 18.5-31.3 47.5-42.9-31.5-17.4-49-36-47.5-54.3 2-24.4 37.4-44.1 94.4-57-.7-18-.3-37.8 1.5-59.7 8.3-101.8 122.8-181.6 274.2-181.6 151.5 0 282.6 108.8 284.1 211 .3 25-.7 47-3 66.6 72.5 24.2 116.6 53.8 114.3 82.5-1.3 16.7-18.5 31.2-47.4 42.8 31.5 17.4 48.9 36 47.4 54.3-1.3 16.7-18.5 31.2-47.4 42.9 31.5 17.3 48.9 36 47.4 54.2z"/></clipPath><clipPath id="bD" clipPathUnits="userSpaceOnUse"><path d="M19638.8 2742.1c-62.8 0-120.2 4.7-167.7 13.8-2.8.5-4.5 3.1-4 5.9.5 2.8 3.2 4.6 5.9 4 74.3-14.2 173.5-17.3 279.3-8.8 86.6 7 167.6 21 234.3 40.4 2.7.8 5.5-.7 6.3-3.4.8-2.7-.8-5.6-3.5-6.3-67.3-19.7-149-33.8-236.3-40.8-39.3-3.2-77.7-4.8-114.3-4.8z"/></clipPath><clipPath id="bF" clipPathUnits="userSpaceOnUse"><path d="M19639.8 2839.4c-81.5 0-154.4 7.7-205.8 22.3-2.7.8-4.3 3.6-3.5 6.3.8 2.7 3.5 4.2 6.2 3.5 73.3-20.9 191.3-27.4 315.6-17.3 123 9.9 237.7 34.8 306.9 66.7 2.5 1.2 5.5.1 6.7-2.5 1.2-2.5.1-5.5-2.5-6.7-70.1-32.4-186.1-57.7-310.3-67.7-38.7-3.1-76.8-4.6-113.3-4.6z"/></clipPath><clipPath id="bH" clipPathUnits="userSpaceOnUse"><path d="M19638.8 2936.4c-88.1 0-165.1 9-217 26.2-2.7.8-4.1 3.7-3.2 6.4.8 2.6 3.7 4.1 6.4 3.2 72.2-23.8 194.5-31.6 327.3-20.9 123 9.9 237.7 34.9 306.9 66.7 2.5 1.2 5.5.1 6.7-2.4 1.2-2.6.1-5.6-2.5-6.8-70.2-32.3-186.2-57.6-310.3-67.6-39.3-3.2-77.7-4.8-114.3-4.8z"/></clipPath><clipPath id="bJ" clipPathUnits="userSpaceOnUse"><path d="M19639.5 3033.6c-69.9 0-133.4 5.7-182.8 16.7-2.8.6-4.5 3.3-3.9 6 .6 2.7 3.4 4.5 6.1 3.9 74.3-16.5 181.2-20.8 293.4-11.8 121.9 9.9 236 34.5 305.3 66.1 2.5 1.1 5.6 0 6.7-2.5 1.2-2.6.1-5.6-2.5-6.8-70.3-32-185.7-57-308.7-66.9-38.8-3.1-77.1-4.7-113.6-4.7z"/></clipPath><clipPath id="bL" clipPathUnits="userSpaceOnUse"><path d="M19723.4 3081.2c-16.5 0-32.5.8-48 2.3-98.2 10-177.1 50.2-240.4 105.8-119.2 104.7-182.7 263.9-215 378.2-25.6 90.9-69.2 175.9-128 249.9-125.8 158.6-331.1 481.1-356.4 921.3-29.9 521.9 341.8 831.4 760.9 904.5 64.3 11.2 129.6 16.8 194.8 16.8 15 0 30-.3 45-.9 16.3-.6 32.5-1.6 48.7-3 81-6.8 162-22 240.6-45.1 359.9-105.6 671.2-376.3 727.9-763.3 10.1-68.6 12.1-140.9 5-216.6-6-63.5-17.1-124.3-32.1-182.3-71.8-277-233.9-489.9-360.2-621.9-3.9-4.1-7.7-8.1-11.5-12.2-62.4-68-112.7-145.7-149.8-229.7-16.9-38.4-31.1-78.2-42.4-118.9-39-140.9-123.9-311.4-308.3-366.7-32.1-9.6-67.4-15.8-105.9-17.6-8.4-.4-16.7-.6-24.9-.6m732.3 1078.4c-9.5 0-18.9-5-24-13.9-24.9-43.1-53.1-85.9-83.8-127.3-9.1-12.2-6.6-29.6 5.7-38.7 5-3.7 10.8-5.5 16.5-5.5 8.5 0 16.8 3.9 22.3 11.2 31.9 43.1 61.3 87.7 87.3 132.7 7.6 13.2 3.1 30.1-10.2 37.8-4.3 2.5-9.1 3.7-13.8 3.7m88.1 960.1c-3.9 0-7.8-.9-11.6-2.6-13.9-6.3-20-22.8-13.6-36.7 1.7-3.7 166-372.1-24.7-811.4-6.1-14.1.3-30.4 14.3-36.5 3.6-1.6 7.4-2.3 11.1-2.3 10.7 0 20.9 6.2 25.4 16.7 200.5 461.8 31.5 840.7 24.3 856.6-4.7 10.2-14.7 16.2-25.2 16.2m-928.1-561.5l92-205 .1-.2c1.4-3.3 4.2-6.1 8.1-7.9 2.7-1.3 5.6-1.9 8.4-1.9 6.3 0 12.4 2.9 15.6 8.1l88.9 142.5 33.4-72.1.3-.6.8-1.5c3.2-5.1 9.2-8 15.5-8 2.8 0 5.6.5 8.3 1.8l119.8 56c8.6 4 11.7 13.2 7.1 20.6-3.1 5.1-9.2 8-15.4 8-2.9 0-5.7-.6-8.4-1.8l-100.9-47.2-35.1 99.9c-1.8 5.2-6.1 9.8-12.2 12.3-3.3 1.4-6.7 2-10 2-8.7 0-17.1-4.3-21.1-11.5l-.1-.4-83.1-151.3-77 215.5-.1.3c-1.9 5.3-5.9 10-11.7 13.2-4.6 2.5-9.7 3.7-14.7 3.7-9.2 0-18.2-4-23.4-11.2l-116.1-159.8c-4.7-6.6-3.1-15.4 4.1-20.2 3.2-2.2 7-3.2 10.8-3.2 5.2 0 10.4 2 13.9 5.9l102.2 114"/></clipPath><clipPath id="bN" clipPathUnits="userSpaceOnUse"><path d="M19834 3209.5l181.3 1179.3c3.8 24.3 15.8 40.7 26.8 36.5 11.1-4.2 17-27.3 13.2-51.7l-.3-2.1-206.5-1168.3c-1.6-8.8-6-14.3-10-12.4-3.8 1.9-5.8 10.2-4.5 18.7z"/></clipPath><clipPath id="bP" clipPathUnits="userSpaceOnUse"><path d="M19645.8 3200.1l-181.3 1179.3c-3.7 24.4-15.7 40.7-26.8 36.5-11-4.1-16.9-27.3-13.2-51.6l.4-2.1 206.5-1168.4c1.5-8.8 6-14.3 9.9-12.4 3.9 1.9 5.8 10.2 4.5 18.7z"/></clipPath><clipPath id="bR" clipPathUnits="userSpaceOnUse"><path d="M19724.3 4343.2c-2.8 0-5.7.6-8.4 1.9-3.9 1.8-6.7 4.6-8.1 7.9l-.1.2-92 205-102.2-114c-3.5-3.9-8.7-5.9-13.9-5.9-3.8 0-7.6 1-10.8 3.2-7.2 4.8-8.8 13.6-4.1 20.2l116.1 159.8c5.2 7.2 14.2 11.2 23.4 11.2 5 0 10.1-1.2 14.7-3.7 5.8-3.2 9.8-7.9 11.7-13.2l.1-.3 77-215.5 83.1 151.3.1.4c4 7.2 12.4 11.5 21.1 11.5 3.3 0 6.7-.6 10-2 6.1-2.5 10.4-7.1 12.2-12.3l35.1-99.9 100.9 47.2c2.7 1.2 5.5 1.8 8.4 1.8 6.2 0 12.3-2.9 15.4-8 4.6-7.4 1.5-16.6-7.1-20.6l-119.8-56c-2.7-1.3-5.5-1.8-8.3-1.8-6.3 0-12.3 2.9-15.5 8l-.8 1.5-.3.6-33.4 72.1-88.9-142.5c-3.2-5.2-9.3-8.1-15.6-8.1"/></clipPath><clipPath id="bT" clipPathUnits="userSpaceOnUse"><path d="M20370.1 3974.2c-5.7 0-11.5 1.8-16.5 5.5-12.3 9.1-14.8 26.5-5.7 38.7 30.7 41.4 58.9 84.2 83.8 127.3 5.1 8.9 14.5 13.9 24 13.9 4.7 0 9.5-1.2 13.8-3.7 13.3-7.7 17.8-24.6 10.2-37.8-26-45-55.4-89.6-87.3-132.7-5.5-7.3-13.8-11.2-22.3-11.2"/></clipPath><clipPath id="bV" clipPathUnits="userSpaceOnUse"><path d="M20519.3 4230.2c-3.7 0-7.5.7-11.1 2.3-14 6.1-20.4 22.4-14.3 36.5 190.7 439.3 26.4 807.7 24.7 811.4-6.4 13.9-.3 30.4 13.6 36.7 3.8 1.7 7.7 2.6 11.6 2.6 10.5 0 20.5-6 25.2-16.2 7.2-15.9 176.2-394.8-24.3-856.6-4.5-10.5-14.7-16.7-25.4-16.7"/></clipPath><linearGradient id="b" spreadMethod="pad" gradientTransform="matrix(20137.6 0 0 -20137.6 1620.47 8093.55)" gradientUnits="userSpaceOnUse" y2="0" x2="1" y1="0" x1="0"><stop offset="0" stop-color="#dae3fe"/><stop offset="1" stop-color="#e9effd"/></linearGradient><linearGradient id="d" spreadMethod="pad" gradientTransform="scale(9759.4 -9759.4) rotate(-71.565 .421 -.958)" gradientUnits="userSpaceOnUse" y2="0" x2="1" y1="0" x1="0"><stop offset="0" stop-color="#09005d"/><stop offset="1" stop-color="#1a0f91"/></linearGradient><linearGradient id="f" spreadMethod="pad" gradientTransform="scale(13261.39 -13261.39) rotate(-36.999 .078 -.91)" gradientUnits="userSpaceOnUse" y2="0" x2="1" y1="0" x1="0"><stop offset="0" stop-color="#4042e2"/><stop offset="1" stop-color="#4f52ff"/></linearGradient><linearGradient id="h" spreadMethod="pad" gradientTransform="scale(-14132 14132) rotate(-13.671 .303 5.683)" gradientUnits="userSpaceOnUse" y2="0" x2="1" y1="0" x1="0"><stop offset="0" stop-color="#09005d"/><stop offset="1" stop-color="#1a0f91"/></linearGradient><linearGradient id="j" spreadMethod="pad" gradientTransform="scale(-12570.56 12570.56) rotate(-81.284 .026 1.082)" gradientUnits="userSpaceOnUse" y2="0" x2="1" y1="0" x1="0"><stop offset="0" stop-color="#fe7062"/><stop offset="1" stop-color="#ff928e"/></linearGradient><linearGradient id="l" spreadMethod="pad" gradientTransform="scale(-1556.02 1556.02) rotate(-52.836 2.745 15.023)" gradientUnits="userSpaceOnUse" y2="0" x2="1" y1="0" x1="0"><stop offset="0" stop-color="#fe7062"/><stop offset="1" stop-color="#ff928e"/></linearGradient><linearGradient id="o" spreadMethod="pad" gradientTransform="scale(-12570.56 12570.56) rotate(-81.284 .026 1.082)" gradientUnits="userSpaceOnUse" y2="0" x2="1" y1="0" x1="0"><stop offset="0" stop-color="#ffe8e6"/><stop offset="1" stop-color="#ffeded"/></linearGradient><linearGradient id="q" spreadMethod="pad" gradientTransform="scale(-12570.56 12570.56) rotate(-81.284 .026 1.082)" gradientUnits="userSpaceOnUse" y2="0" x2="1" y1="0" x1="0"><stop offset="0" stop-color="#ffe8e6"/><stop offset="1" stop-color="#ffeded"/></linearGradient><linearGradient id="s" spreadMethod="pad" gradientTransform="scale(-12570.56 12570.56) rotate(-81.284 .026 1.082)" gradientUnits="userSpaceOnUse" y2="0" x2="1" y1="0" x1="0"><stop offset="0" stop-color="#ffe8e6"/><stop offset="1" stop-color="#ffeded"/></linearGradient><linearGradient id="u" spreadMethod="pad" gradientTransform="scale(-12570.56 12570.56) rotate(-81.284 .026 1.082)" gradientUnits="userSpaceOnUse" y2="0" x2="1" y1="0" x1="0"><stop offset="0" stop-color="#ffe8e6"/><stop offset="1" stop-color="#ffeded"/></linearGradient><linearGradient id="w" spreadMethod="pad" gradientTransform="scale(-12570.56 12570.56) rotate(-81.284 .026 1.082)" gradientUnits="userSpaceOnUse" y2="0" x2="1" y1="0" x1="0"><stop offset="0" stop-color="#ffe8e6"/><stop offset="1" stop-color="#ffeded"/></linearGradient><linearGradient id="y" spreadMethod="pad" gradientTransform="scale(-12570.56 12570.56) rotate(-81.284 .026 1.082)" gradientUnits="userSpaceOnUse" y2="0" x2="1" y1="0" x1="0"><stop offset="0" stop-color="#ffe8e6"/><stop offset="1" stop-color="#ffeded"/></linearGradient><linearGradient id="A" spreadMethod="pad" gradientTransform="scale(-12570.56 12570.56) rotate(-81.284 .026 1.082)" gradientUnits="userSpaceOnUse" y2="0" x2="1" y1="0" x1="0"><stop offset="0" stop-color="#ffe8e6"/><stop offset="1" stop-color="#ffeded"/></linearGradient><linearGradient id="C" spreadMethod="pad" gradientTransform="scale(-12570.56 12570.56) rotate(-81.284 .026 1.082)" gradientUnits="userSpaceOnUse" y2="0" x2="1" y1="0" x1="0"><stop offset="0" stop-color="#ffe8e6"/><stop offset="1" stop-color="#ffeded"/></linearGradient><linearGradient id="E" spreadMethod="pad" gradientTransform="scale(-12570.56 12570.56) rotate(-81.284 .026 1.082)" gradientUnits="userSpaceOnUse" y2="0" x2="1" y1="0" x1="0"><stop offset="0" stop-color="#ffe8e6"/><stop offset="1" stop-color="#ffeded"/></linearGradient><linearGradient id="G" spreadMethod="pad" gradientTransform="scale(-12570.56 12570.56) rotate(-81.284 .026 1.082)" gradientUnits="userSpaceOnUse" y2="0" x2="1" y1="0" x1="0"><stop offset="0" stop-color="#ffe8e6"/><stop offset="1" stop-color="#ffeded"/></linearGradient><linearGradient id="I" spreadMethod="pad" gradientTransform="matrix(992.393 0 0 -992.393 6362.02 3855.7)" gradientUnits="userSpaceOnUse" y2="0" x2="1" y1="0" x1="0"><stop offset="0" stop-color="#fe7062"/><stop offset="1" stop-color="#ff928e"/></linearGradient><linearGradient id="K" spreadMethod="pad" gradientTransform="matrix(1149.65 0 0 -1149.65 4274.72 3825.4)" gradientUnits="userSpaceOnUse" y2="0" x2="1" y1="0" x1="0"><stop offset="0" stop-color="#fe7062"/><stop offset="1" stop-color="#ff928e"/></linearGradient><linearGradient id="M" spreadMethod="pad" gradientTransform="matrix(1615.7 0 0 -1615.7 5067.68 5074.8)" gradientUnits="userSpaceOnUse" y2="0" x2="1" y1="0" x1="0"><stop offset="0" stop-color="#fe7062"/><stop offset="1" stop-color="#ff928e"/></linearGradient><linearGradient id="O" spreadMethod="pad" gradientTransform="matrix(1557.07 0 0 -1557.07 5097.02 5074.8)" gradientUnits="userSpaceOnUse" y2="0" x2="1" y1="0" x1="0"><stop offset="0" stop-color="#fe7062"/><stop offset="1" stop-color="#ff928e"/></linearGradient><linearGradient id="Q" spreadMethod="pad" gradientTransform="matrix(1615.7 0 0 -1615.7 5067.68 4233.2)" gradientUnits="userSpaceOnUse" y2="0" x2="1" y1="0" x1="0"><stop offset="0" stop-color="#fe7062"/><stop offset="1" stop-color="#ff928e"/></linearGradient><linearGradient id="S" spreadMethod="pad" gradientTransform="matrix(1934.8 0 0 -1934.8 4885.02 4233.2)" gradientUnits="userSpaceOnUse" y2="0" x2="1" y1="0" x1="0"><stop offset="0" stop-color="#fe7062"/><stop offset="1" stop-color="#ff928e"/></linearGradient><linearGradient id="U" spreadMethod="pad" gradientTransform="matrix(1615.7 0 0 -1615.7 5067.68 3391.5)" gradientUnits="userSpaceOnUse" y2="0" x2="1" y1="0" x1="0"><stop offset="0" stop-color="#fe7062"/><stop offset="1" stop-color="#ff928e"/></linearGradient><linearGradient id="W" spreadMethod="pad" gradientTransform="matrix(2293.68 0 0 -2293.68 4700.15 3391.5)" gradientUnits="userSpaceOnUse" y2="0" x2="1" y1="0" x1="0"><stop offset="0" stop-color="#fe7062"/><stop offset="1" stop-color="#ff928e"/></linearGradient><linearGradient id="Y" spreadMethod="pad" gradientTransform="matrix(2158.54 0 0 -2158.54 4524.85 2549.9)" gradientUnits="userSpaceOnUse" y2="0" x2="1" y1="0" x1="0"><stop offset="0" stop-color="#fe7062"/><stop offset="1" stop-color="#ff928e"/></linearGradient><linearGradient id="aa" spreadMethod="pad" gradientTransform="matrix(2609.73 0 0 -2609.73 4524.85 2549.9)" gradientUnits="userSpaceOnUse" y2="0" x2="1" y1="0" x1="0"><stop offset="0" stop-color="#fe7062"/><stop offset="1" stop-color="#ff928e"/></linearGradient><linearGradient id="ac" spreadMethod="pad" gradientTransform="matrix(330.013 0 0 -330.013 5229.07 5208.6)" gradientUnits="userSpaceOnUse" y2="0" x2="1" y1="0" x1="0"><stop offset="0" stop-color="#09005d"/><stop offset="1" stop-color="#1a0f91"/></linearGradient><linearGradient id="ae" spreadMethod="pad" gradientTransform="matrix(133.841 0 0 -133.841 5262.54 5361.9)" gradientUnits="userSpaceOnUse" y2="0" x2="1" y1="0" x1="0"><stop offset="0" stop-color="#ff928e"/><stop offset="1" stop-color="#feb3b1"/></linearGradient><linearGradient id="ag" spreadMethod="pad" gradientTransform="matrix(517.802 0 0 -517.802 5930.88 5213.9)" gradientUnits="userSpaceOnUse" y2="0" x2="1" y1="0" x1="0"><stop offset="0" stop-color="#09005d"/><stop offset="1" stop-color="#1a0f91"/></linearGradient><linearGradient id="ai" spreadMethod="pad" gradientTransform="matrix(133.103 0 0 -133.103 5938.74 5421.4)" gradientUnits="userSpaceOnUse" y2="0" x2="1" y1="0" x1="0"><stop offset="0" stop-color="#ff928e"/><stop offset="1" stop-color="#feb3b1"/></linearGradient><linearGradient id="ak" spreadMethod="pad" gradientTransform="matrix(40.0003 3420 3420 -40.0003 5599.87 3619.2)" gradientUnits="userSpaceOnUse" y2="0" x2="1" y1="0" x1="0"><stop offset="0" stop-color="#09005d"/><stop offset="1" stop-color="#1a0f91"/></linearGradient><linearGradient id="am" spreadMethod="pad" gradientTransform="matrix(189.217 0 0 -189.217 5380.22 7251.93)" gradientUnits="userSpaceOnUse" y2="0" x2="1" y1="0" x1="0"><stop offset="0" stop-color="#4042e2"/><stop offset="1" stop-color="#4f52ff"/></linearGradient><linearGradient id="ao" spreadMethod="pad" gradientTransform="scale(992.884 -992.884) rotate(-76.803 -2.62 -8.812)" gradientUnits="userSpaceOnUse" y2="0" x2="1" y1="0" x1="0"><stop offset="0" stop-color="#fe7062"/><stop offset="1" stop-color="#ff928e"/></linearGradient><linearGradient id="aq" spreadMethod="pad" gradientTransform="scale(-1920.293 1920.293) rotate(-65.48 2.273 5.867)" gradientUnits="userSpaceOnUse" y2="0" x2="1" y1="0" x1="0"><stop offset="0" stop-color="#ff928e"/><stop offset="1" stop-color="#feb3b1"/></linearGradient><linearGradient id="as" spreadMethod="pad" gradientTransform="scale(-4640.07 4640.07) rotate(-43.781 1.979 3.594)" gradientUnits="userSpaceOnUse" y2="0" x2="1" y1="0" x1="0"><stop offset="0" stop-color="#e1473d"/><stop offset="1" stop-color="#e9605a"/></linearGradient><linearGradient id="au" spreadMethod="pad" gradientTransform="matrix(-1400 -1430 -1430 1400 8095.51 9209.71)" gradientUnits="userSpaceOnUse" y2="0" x2="1" y1="0" x1="0"><stop offset="0" stop-color="#ff928e"/><stop offset="1" stop-color="#feb3b1"/></linearGradient><linearGradient id="aw" spreadMethod="pad" gradientTransform="matrix(-1400 -1430 -1430 1400 8245.43 9062.93)" gradientUnits="userSpaceOnUse" y2="0" x2="1" y1="0" x1="0"><stop offset="0" stop-color="#ff928e"/><stop offset="1" stop-color="#feb3b1"/></linearGradient><linearGradient id="ay" spreadMethod="pad" gradientTransform="scale(-2165.55 2165.55) rotate(-61.443 2.333 4.934)" gradientUnits="userSpaceOnUse" y2="0" x2="1" y1="0" x1="0"><stop offset="0" stop-color="#ff928e"/><stop offset="1" stop-color="#feb3b1"/></linearGradient><linearGradient id="aA" spreadMethod="pad" gradientTransform="scale(-758.7224 758.7224) rotate(-88.132 2.349 10.74)" gradientUnits="userSpaceOnUse" y2="0" x2="1" y1="0" x1="0"><stop offset="0" stop-color="#ff928e"/><stop offset="1" stop-color="#feb3b1"/></linearGradient><linearGradient id="aC" spreadMethod="pad" gradientTransform="rotate(-91.548 8169.087 1993.047) scale(1890.3701)" gradientUnits="userSpaceOnUse" y2="0" x2="1" y1="0" x1="0"><stop offset="0" stop-color="#e1473d"/><stop offset="1" stop-color="#e9605a"/></linearGradient><linearGradient id="aE" spreadMethod="pad" gradientTransform="scale(525.7532 -525.7532) rotate(-80.952 -4.055 -15.304)" gradientUnits="userSpaceOnUse" y2="0" x2="1" y1="0" x1="0"><stop offset="0" stop-color="#ff928e"/><stop offset="1" stop-color="#feb3b1"/></linearGradient><linearGradient id="aG" spreadMethod="pad" gradientTransform="scale(568.156 -568.156) rotate(46.245 38.106 30.256)" gradientUnits="userSpaceOnUse" y2="0" x2="1" y1="0" x1="0"><stop offset="0" stop-color="#09005d"/><stop offset="1" stop-color="#1a0f91"/></linearGradient><linearGradient id="aI" spreadMethod="pad" gradientTransform="scale(1594.372 -1594.372) rotate(-75.132 1.418 -10.907)" gradientUnits="userSpaceOnUse" y2="0" x2="1" y1="0" x1="0"><stop offset="0" stop-color="#4042e2"/><stop offset="1" stop-color="#4f52ff"/></linearGradient><linearGradient id="aK" spreadMethod="pad" gradientTransform="scale(921.92 -921.92) rotate(36.277 26.045 27.427)" gradientUnits="userSpaceOnUse" y2="0" x2="1" y1="0" x1="0"><stop offset="0" stop-color="#09005d"/><stop offset="1" stop-color="#1a0f91"/></linearGradient><linearGradient id="aM" spreadMethod="pad" gradientTransform="scale(-2645.592 2645.592) rotate(-85.196 -1.496 5.612)" gradientUnits="userSpaceOnUse" y2="0" x2="1" y1="0" x1="0"><stop offset="0" stop-color="#4042e2"/><stop offset="1" stop-color="#4f52ff"/></linearGradient><linearGradient id="aO" spreadMethod="pad" gradientTransform="scale(-1011.834 1011.834) rotate(-76.065 -2.116 16.797)" gradientUnits="userSpaceOnUse" y2="0" x2="1" y1="0" x1="0"><stop offset="0" stop-color="#ff928e"/><stop offset="1" stop-color="#feb3b1"/></linearGradient><linearGradient id="aQ" spreadMethod="pad" gradientTransform="scale(-4212.87 4212.87) rotate(-52.595 .758 5.704)" gradientUnits="userSpaceOnUse" y2="0" x2="1" y1="0" x1="0"><stop offset="0" stop-color="#09005d"/><stop offset="1" stop-color="#1a0f91"/></linearGradient><linearGradient id="aS" spreadMethod="pad" gradientTransform="scale(1709.08 -1709.08) rotate(-53.835 -.994 -13.425)" gradientUnits="userSpaceOnUse" y2="0" x2="1" y1="0" x1="0"><stop offset="0" stop-color="#ff928e"/><stop offset="1" stop-color="#feb3b1"/></linearGradient><linearGradient id="aU" spreadMethod="pad" gradientTransform="scale(-1078.142 1078.142) rotate(-66.595 .616 17.89)" gradientUnits="userSpaceOnUse" y2="0" x2="1" y1="0" x1="0"><stop offset="0" stop-color="#ff928e"/><stop offset="1" stop-color="#feb3b1"/></linearGradient><linearGradient id="aW" spreadMethod="pad" gradientTransform="matrix(0 -893.444 -893.444 0 17345.1 12928)" gradientUnits="userSpaceOnUse" y2="0" x2="1" y1="0" x1="0"><stop offset="0" stop-color="#ff928e"/><stop offset="1" stop-color="#feb3b1"/></linearGradient><linearGradient id="aY" spreadMethod="pad" gradientTransform="scale(881.566 -881.566) rotate(80.056 18.705 4.167)" gradientUnits="userSpaceOnUse" y2="0" x2="1" y1="0" x1="0"><stop offset="0" stop-color="#09005d"/><stop offset="1" stop-color="#1a0f91"/></linearGradient><linearGradient id="ba" spreadMethod="pad" gradientTransform="matrix(0 -893.443 -893.443 0 17150.5 12928)" gradientUnits="userSpaceOnUse" y2="0" x2="1" y1="0" x1="0"><stop offset="0" stop-color="#ff928e"/><stop offset="1" stop-color="#feb3b1"/></linearGradient><linearGradient id="bc" spreadMethod="pad" gradientTransform="matrix(767.465 0 0 -767.465 18576.3 11088.4)" gradientUnits="userSpaceOnUse" y2="0" x2="1" y1="0" x1="0"><stop offset="0" stop-color="#09005d"/><stop offset="1" stop-color="#1a0f91"/></linearGradient><linearGradient id="be" spreadMethod="pad" gradientTransform="scale(-636.301 636.301) rotate(-15.327 48.125 117.477)" gradientUnits="userSpaceOnUse" y2="0" x2="1" y1="0" x1="0"><stop offset="0" stop-color="#09005d"/><stop offset="1" stop-color="#1a0f91"/></linearGradient><linearGradient id="bg" spreadMethod="pad" gradientTransform="scale(-1803.247 1803.247) rotate(-59.556 .974 12.251)" gradientUnits="userSpaceOnUse" y2="0" x2="1" y1="0" x1="0"><stop offset="0" stop-color="#4042e2"/><stop offset="1" stop-color="#4f52ff"/></linearGradient><linearGradient id="bi" spreadMethod="pad" gradientTransform="scale(-1803.247 1803.247) rotate(-59.556 1.131 12.161)" gradientUnits="userSpaceOnUse" y2="0" x2="1" y1="0" x1="0"><stop offset="0" stop-color="#4042e2"/><stop offset="1" stop-color="#4f52ff"/></linearGradient><linearGradient id="bk" spreadMethod="pad" gradientTransform="scale(-1803.23 1803.23) rotate(-59.556 1.188 12.129)" gradientUnits="userSpaceOnUse" y2="0" x2="1" y1="0" x1="0"><stop offset="0" stop-color="#4042e2"/><stop offset="1" stop-color="#4f52ff"/></linearGradient><linearGradient id="bm" spreadMethod="pad" gradientTransform="matrix(303.25 0 0 -303.25 18239.8 6866.41)" gradientUnits="userSpaceOnUse" y2="0" x2="1" y1="0" x1="0"><stop offset="0" stop-color="#dae3fe"/><stop offset="1" stop-color="#e9effd"/></linearGradient><linearGradient id="bo" spreadMethod="pad" gradientTransform="matrix(917.729 0 0 -917.729 17175.7 7154.53)" gradientUnits="userSpaceOnUse" y2="0" x2="1" y1="0" x1="0"><stop offset="0" stop-color="#dae3fe"/><stop offset="1" stop-color="#e9effd"/></linearGradient><linearGradient id="bq" spreadMethod="pad" gradientTransform="matrix(796.575 0 0 -796.575 16172.5 7272.7)" gradientUnits="userSpaceOnUse" y2="0" x2="1" y1="0" x1="0"><stop offset="0" stop-color="#dae3fe"/><stop offset="1" stop-color="#e9effd"/></linearGradient><linearGradient id="bs" spreadMethod="pad" gradientTransform="matrix(433.04 0 0 -433.04 17725.8 6675.64)" gradientUnits="userSpaceOnUse" y2="0" x2="1" y1="0" x1="0"><stop offset="0" stop-color="#dae3fe"/><stop offset="1" stop-color="#e9effd"/></linearGradient><linearGradient id="bu" spreadMethod="pad" gradientTransform="matrix(1277.64 0 0 -1277.64 16199.6 6878.65)" gradientUnits="userSpaceOnUse" y2="0" x2="1" y1="0" x1="0"><stop offset="0" stop-color="#dae3fe"/><stop offset="1" stop-color="#e9effd"/></linearGradient><linearGradient id="bw" spreadMethod="pad" gradientTransform="matrix(335.927 0 0 -335.927 17956.1 6192.6)" gradientUnits="userSpaceOnUse" y2="0" x2="1" y1="0" x1="0"><stop offset="0" stop-color="#dae3fe"/><stop offset="1" stop-color="#e9effd"/></linearGradient><linearGradient id="by" spreadMethod="pad" gradientTransform="matrix(916.028 0 0 -916.028 16870.8 6430.5)" gradientUnits="userSpaceOnUse" y2="0" x2="1" y1="0" x1="0"><stop offset="0" stop-color="#dae3fe"/><stop offset="1" stop-color="#e9effd"/></linearGradient><linearGradient id="bA" spreadMethod="pad" gradientTransform="matrix(474.631 0 0 -474.631 16226.2 6501.33)" gradientUnits="userSpaceOnUse" y2="0" x2="1" y1="0" x1="0"><stop offset="0" stop-color="#dae3fe"/><stop offset="1" stop-color="#e9effd"/></linearGradient><linearGradient id="bC" spreadMethod="pad" gradientTransform="scale(-1038.023 1038.023) rotate(-81.384 -7.755 12.594)" gradientUnits="userSpaceOnUse" y2="0" x2="1" y1="0" x1="0"><stop offset="0" stop-color="#020039"/><stop offset="1" stop-color="#090056"/></linearGradient><linearGradient id="bE" spreadMethod="pad" gradientTransform="scale(-1252.978 1252.978) rotate(-74.65 -6.454 11.389)" gradientUnits="userSpaceOnUse" y2="0" x2="1" y1="0" x1="0"><stop offset="0" stop-color="#4042e2"/><stop offset="1" stop-color="#4f52ff"/></linearGradient><linearGradient id="bG" spreadMethod="pad" gradientTransform="scale(-1252.968 1252.968) rotate(-74.65 -6.448 11.384)" gradientUnits="userSpaceOnUse" y2="0" x2="1" y1="0" x1="0"><stop offset="0" stop-color="#4042e2"/><stop offset="1" stop-color="#4f52ff"/></linearGradient><linearGradient id="bI" spreadMethod="pad" gradientTransform="scale(-1252.968 1252.968) rotate(-74.65 -6.431 11.371)" gradientUnits="userSpaceOnUse" y2="0" x2="1" y1="0" x1="0"><stop offset="0" stop-color="#4042e2"/><stop offset="1" stop-color="#4f52ff"/></linearGradient><linearGradient id="bK" spreadMethod="pad" gradientTransform="scale(-1252.97 1252.97) rotate(-74.65 -6.427 11.368)" gradientUnits="userSpaceOnUse" y2="0" x2="1" y1="0" x1="0"><stop offset="0" stop-color="#4042e2"/><stop offset="1" stop-color="#4f52ff"/></linearGradient><linearGradient id="bM" spreadMethod="pad" gradientTransform="scale(4734.06 -4734.06) rotate(61.504 3.017 2.842)" gradientUnits="userSpaceOnUse" y2="0" x2="1" y1="0" x1="0"><stop offset="0" stop-color="#fe7062"/><stop offset="1" stop-color="#ff928e"/></linearGradient><linearGradient id="bO" spreadMethod="pad" gradientTransform="scale(2366.9615 -2366.9615) rotate(88.197 5.095 3.49)" gradientUnits="userSpaceOnUse" y2="0" x2="1" y1="0" x1="0"><stop offset="0" stop-color="#e1473d"/><stop offset="1" stop-color="#e9605a"/></linearGradient><linearGradient id="bQ" spreadMethod="pad" gradientTransform="scale(2366.9615 -2366.9615) rotate(88.197 5.005 3.404)" gradientUnits="userSpaceOnUse" y2="0" x2="1" y1="0" x1="0"><stop offset="0" stop-color="#e1473d"/><stop offset="1" stop-color="#e9605a"/></linearGradient><linearGradient id="bS" spreadMethod="pad" gradientTransform="scale(4734.06 -4734.06) rotate(61.504 3.017 2.842)" gradientUnits="userSpaceOnUse" y2="0" x2="1" y1="0" x1="0"><stop offset="0" stop-color="#ffdedb"/><stop offset="1" stop-color="#ffe6e5"/></linearGradient><linearGradient id="bU" spreadMethod="pad" gradientTransform="scale(4734.06 -4734.06) rotate(61.504 3.017 2.842)" gradientUnits="userSpaceOnUse" y2="0" x2="1" y1="0" x1="0"><stop offset="0" stop-color="#ffe8e6"/><stop offset="1" stop-color="#ffeded"/></linearGradient><linearGradient id="bW" spreadMethod="pad" gradientTransform="scale(4734.06 -4734.06) rotate(61.504 3.017 2.842)" gradientUnits="userSpaceOnUse" y2="0" x2="1" y1="0" x1="0"><stop offset="0" stop-color="#ffe8e6"/><stop offset="1" stop-color="#ffeded"/></linearGradient></defs><path d="M3299.99 2200H0V0h3299.99v2200" fill="#fff"/><g clip-path="url(#a)" transform="matrix(.13333 0 0 -.13333 0 2200)"><path d="M7123.14 1218.94c-312.49 0-593.63 85.06-886.82 239.81h1889.87c-386.18-164.18-708.51-239.81-1003.05-239.81M4629 2620.32c-502.81 386.41-1111.56 834.29-1893.61 1319.45-3432.384 2129.38-23.98 3202.73 799.01 3753.07 822.99 550.34-765.6 1811.03 422.78 2793.16 531.41 439.2 1051.85 610.1 1532.39 610.1 984.52 0 1800.64-718.2 2194.22-1319.01l-1118.37 6.85h-1.98c-179.19 0-322.12-149.97-313.23-329.21l86.13-1778.65-1438.77-37.23a342 342 0 01-23.1.79c-203.38 0-314.03-186.81-314.03-284.2L4629 2620.32m10606.3 1648.49c-59.8 17.58-121.4 29.14-183 34.32-12.3 1.06-24.6 1.82-37.1 2.28l73.6 3111.01c3 126.76-46.2 249.18-136 338.74-87 86.72-204.8 135.24-327.4 135.24-3.9 0-8-.04-12-.15l-1587.2-41.07 37.7 775.97-371.2 410.08c28.3 22.47 56.7 45.29 85.2 68.58 749.7 611.81 1390.3 849.97 1911.6 849.97 1437.3 0 1966.8-1811.77 1366.4-2600.49-658.2-864.48-491.9-1019.97-28.7-1923.51-301.3-366.83-564.3-763.3-791.9-1160.97" fill="url(#b)" transform="scale(1.31442)"/></g><path d="M2457.427 1981.466s100.975-433.895 358.573-741.679c47.322-56.545 139.1-23.594 139.464 50.141 1.052 214.404-67.257 565.112-498.037 691.538" fill="#91b3fa"/><path d="M2890.625 1285.488c-7.662 32.605-17.612 64.39-28.29 96.004-10.89 31.533-22.72 62.733-35.72 93.48-25.949 61.506-55.728 121.48-89.764 179.04-17.116 28.72-34.923 57.054-54.167 84.414-9.418 13.826-19.581 27.133-29.46 40.625-10.305 13.187-20.415 26.495-31.323 39.201-42.62 51.574-90.438 98.948-142.99 140.066a3.627 3.627 0 01-5.073-.611 3.639 3.639 0 01.372-4.84l.035-.041c48.155-45.427 92.78-94.133 133.059-146.306 10.305-12.854 19.776-26.348 29.726-39.481 9.436-13.493 19.173-26.788 28.166-40.587 4.505-6.906 9.276-13.612 13.674-20.572l13.374-20.787c4.416-6.962 8.637-14.028 12.965-21.04 4.363-7.001 8.513-14.108 12.646-21.242 8.478-14.132 16.53-28.518 24.654-42.88 7.839-14.492 15.714-28.986 23.252-43.652 15.36-29.2 29.62-58.974 43.56-88.908 13.782-30.013 26.978-60.32 39.358-90.973 12.522-30.587 24.263-61.61 34.994-92.808l.035-.097a3.598 3.598 0 014.576-2.233c1.756.605 2.75 2.455 2.341 4.228" fill="#dce5fe"/><path d="M2549.514 1949.706s211.473-303.88 447.816-381.32c58.58-19.2 108.928 45.267 76.36 97.614-66.146 106.293-212.54 252.693-524.176 283.706" fill="#bdd0fb"/><path d="M3051.232 1614.974c-18.129 16.494-36.706 32.292-55.546 47.892-9.477 7.694-18.972 15.374-28.541 22.96-9.645 7.493-19.215 15.108-28.934 22.48a2140.446 2140.446 0 01-119.52 84.828c-20.245 13.652-41.145 26.359-61.782 39.427l-31.5 18.746c-5.244 3.107-10.469 6.266-15.788 9.293l-16.03 8.893c-42.4 24.32-86.41 45.707-130.682 66.347-1.535.72-3.37.054-4.1-1.493-.713-1.52-.057-3.32 1.422-4.068l.094-.039 32.736-16.173 16.35-8.08c5.411-2.773 10.749-5.707 16.124-8.56l32.23-17.107c10.656-5.894 21.2-11.986 31.8-17.96l15.861-9.013 15.657-9.374 31.294-18.772c20.525-13.081 41.294-25.788 61.426-39.467 20.376-13.32 40.358-27.215 60.34-41.094l29.665-21.28 29.346-21.72c9.795-7.24 19.383-14.733 29.084-22.08 9.607-7.454 19.158-15.012 28.69-22.574 19.01-15.186 37.905-30.6 56.165-46.572l.037-.041c1.274-1.133 3.221-.998 4.364.28a3.086 3.086 0 01-.262 4.321" fill="#dce5fe"/><path d="M966.472 1803.92c-96.447 19.28-219.61-85.867-259.288-200.747-40.833-118.213 34.033-167.733 33.456-331.77-.656-186.344-97.59-214.428-161.707-465.603-14.465-56.667-98.18-384.613 5.576-446.093 95.934-56.827 365.402 106.28 412.631 315.053 33.677 148.867-70.43 211.37-30.668 384.752 34.888 152.13 126.577 154.332 161.707 301.101 42.766 178.694-35.072 417.987-161.707 443.307" fill="#bdd0fb"/><path d="M959.468 1849.067c25.999-200.774-24.721-510.507-71.848-735.002C836.597 871.02 778.688 672.773 778.11 670.8l-8.026 2.347c.577 1.973 58.408 199.961 109.363 442.696 46.988 223.837 97.573 532.557 71.724 732.144l8.297 1.08" fill="#dce5fe"/><path d="M872.995 1877.027c126.51-65.92 169.814-292.28 97.9-365.854-48.59-49.706-118.272 2.587-185.498-48.946-85.83-65.787-22.692-189.691-90.172-350.383-57.426-136.752-195.174-266.15-275.67-239.601-84.26 27.792-128.64 234.008-56.68 358.113 46.797 80.707 118.43 84.672 133.97 159.737 18.032 87.094-69.086 126.814-69.561 211.254-.852 151.68 278.344 362.88 445.71 275.68" fill="#91b3fa"/><path d="M804.724 1934.987c.755 0 1.521-.16 2.245-.52a5.145 5.145 0 002.387-6.88c-167.721-345.6-216.901-746.54-217.38-750.551a5.153 5.153 0 00-10.232 1.219c.479 4.026 49.87 406.678 218.34 753.825a5.148 5.148 0 004.64 2.907M460.621 1280.867a2.463 2.463 0 001.941-3.975c-52.94-67.955-111.614-170.044-90.493-270.512 12.579-59.835 47.986-91.041 48.342-91.35a2.462 2.462 0 10-3.223-3.722c-1.505 1.301-37.021 32.615-49.937 94.059-11.874 56.472-5.648 149.946 91.426 274.55a2.46 2.46 0 001.944.95" fill="#dce5fe"/><path d="M884.4 1846.84c.785 0 1.557-.373 2.033-1.067 81.359-118.746 109.103-210.493 82.46-272.693-23.686-55.307-83.496-65.6-84.096-65.693a2.464 2.464 0 00-2.825 2.026 2.46 2.46 0 002.035 2.827c.574.093 57.8 10.013 80.385 62.84 25.89 60.547-1.705 150.693-82.02 267.907a2.467 2.467 0 00.637 3.426c.427.294.911.427 1.391.427" fill="#f0f0f0"/><g clip-path="url(#c)" transform="matrix(.13333 0 0 -.13333 0 2200)"><path d="M15953.1 1575.76H5214.21c-109.22 0-198.58 89.25-198.58 198.39l-15.31 1056.37-74.06 5114.95c0 105.19 119.53 306.99 339.22 306.99 8.19 0 16.48-.28 24.95-.86l1554.18 40.22 11.74-242.39-1170.69-31.41c-4.95.2-9.97.3-15.09.3-180.19 0-459.93-123.63-469.59-451.45l84.32-5602.39c0-103.3 84.55-187.87 187.88-187.87H15767.7c103.4 0 188 84.57 188 187.87l16.4 656.55c52-45.69 116.9-78.73 197.6-86.94l-4.2-175.22-13.8-584.72c0-5.43-.2-10.85-.7-16.19-8.3-101.66-94.2-182.2-197.9-182.2m69.5 3061.94l82.6 3290.27c2.4 96.28-35.1 189.36-103.3 257.38-66 65.8-155.2 102.66-248.1 102.66-3.1 0-6.3-.04-9.4-.13l-1684.8-45.2 11.5 236.13 1714.5 44.36c4.4.12 8.7.17 13 .17 132.4 0 259.7-52.42 353.6-146.1 97.1-96.73 150.2-228.98 147-365.91l-79.5-3360.56c-12.3.49-24.6.74-37 .74-53.6 0-107.2-4.61-160.1-13.81" fill="url(#d)" transform="scale(1.21681)"/></g><g clip-path="url(#e)" transform="matrix(.13333 0 0 -.13333 0 2200)"><path d="M15957.6 1798.01H5539.09c-104.58 0-190.14 85.58-190.14 190.13l-85.33 5669.85c9.77 331.76 292.88 456.89 475.23 456.89 5.18 0 10.26-.1 15.28-.3l1184.78 31.78 306.12-6321.65h6666.57l317.3 6517.22 1705.1 45.75c3.1.09 6.4.13 9.5.13 94 0 184.3-37.3 251.1-103.89 69.1-68.84 107-163.04 104.6-260.48l-83.6-3329.89c-348.6-60.8-657.7-318.22-632.9-752.29 21.1-366.12 191.8-634.35 296.5-766.26 48.9-61.55 85.1-132.25 106.4-207.85 26.9-95.06 79.7-227.47 178.8-314.55l-16.6-664.46c0-104.55-85.6-190.13-190.2-190.13" fill="url(#f)" transform="scale(1.20233)"/></g><path d="M875.544 1447.467a2.463 2.463 0 01-2.461-2.427L872 1371.32a2.455 2.455 0 012.427-2.493c1.3.08 2.478 1.066 2.498 2.426l1.083 73.707a2.475 2.475 0 01-2.427 2.507h-.037M872.89 1266.83a2.462 2.462 0 01-2.46-2.427l-4.146-282.323c.085-18.856 5.895-33.917 17.265-44.813 20.688-19.823 53.064-18.832 54.43-18.774l521.154-13.985c1.387-.065 2.48 1.036 2.52 2.396a2.451 2.451 0 01-2.386 2.527l-521.298 13.985c-1.457-.04-31.813-.988-51.012 17.408-10.37 9.936-15.669 23.808-15.748 41.23l4.147 282.277a2.466 2.466 0 01-2.428 2.498h-.037" fill="#bdd0fb"/><g clip-path="url(#g)" transform="matrix(.13333 0 0 -.13333 0 2200)"><path d="M16240.9 1207.22H4235.96c-32.47 0-59.05 26.6-59.05 59.02v401.09c0 32.5 26.58 59.1 59.05 59.1H16240.9c32.5 0 59.1-26.6 59.1-59.1v-401.09c0-32.42-26.6-59.02-59.1-59.02" fill="url(#h)" transform="scale(1.27077)"/></g><g clip-path="url(#i)" transform="matrix(.13333 0 0 -.13333 0 2200)"><path d="M15877.6 2082.57H8268.87l-349.38 7215.01-13.55 279.97-107.47 2219.25c-11.09 223.6 167.25 410.8 390.83 410.8h2.47l1395.4-8.6 5441.93-33.3 807.8-892.3 463.1-511.7-47.1-968.16-13.3-272.75-362-7438.22M9136.68 3181.33c-159.76 0-289.27-86.29-289.27-192.8 0-106.6 129.51-192.88 289.27-192.88h5522.42c159.8 0 289.3 86.28 289.3 192.88 0 106.51-129.5 192.8-289.3 192.8H9136.68m0 753.89c-159.76 0-289.27-86.38-289.27-192.88 0-106.51 129.51-192.8 289.27-192.8h5522.42c159.8 0 289.3 86.29 289.3 192.8 0 106.5-129.5 192.88-289.3 192.88H9136.68m0 753.8c-159.76 0-289.27-86.28-289.27-192.79 0-106.51 129.51-192.89 289.27-192.89h5522.42c159.8 0 289.3 86.38 289.3 192.89 0 106.51-129.5 192.79-289.3 192.79H9136.68m0 1174.61c-159.76 0-289.27-86.29-289.27-192.79 0-106.51 129.51-192.89 289.27-192.89h5522.42c159.8 0 289.3 86.38 289.3 192.89 0 106.5-129.5 192.79-289.3 192.79H9136.68m0 753.9c-159.76 0-289.27-86.35-289.27-192.85 0-106.51 129.51-192.85 289.27-192.85h5522.42c159.8 0 289.3 86.34 289.3 192.85 0 106.5-129.5 192.85-289.3 192.85H9136.68m0 753.84c-159.76 0-289.27-86.32-289.27-192.84 0-106.5 129.51-192.85 289.27-192.85h5522.42c159.8 0 289.3 86.35 289.3 192.85 0 106.52-129.5 192.84-289.3 192.84H9136.68M10957 8545.99c-109.7 0-198.6-86.34-198.6-192.84 0-106.52 88.9-192.85 198.6-192.85h3792.7c109.7 0 198.7 86.33 198.7 192.85 0 106.5-89 192.84-198.7 192.84H10957m0 753.86c-109.7 0-198.6-86.34-198.6-192.84 0-106.52 88.9-192.85 198.6-192.85h3792.7c109.7 0 198.7 86.33 198.7 192.85 0 106.5-89 192.84-198.7 192.84H10957m0 753.85c-109.7 0-198.6-86.33-198.6-192.83 0-106.52 88.9-192.85 198.6-192.85h3792.7c109.7 0 198.7 86.33 198.7 192.85 0 106.5-89 192.83-198.7 192.83H10957m-5.8 876.6c-106.6 0-192.8-86.3-192.8-192.9 0-106.5 86.2-192.8 192.8-192.8h3681.6c106.5 0 192.8 86.3 192.8 192.8 0 106.6-86.3 192.9-192.8 192.9h-3681.6" fill="url(#j)" transform="scale(1.05346)"/></g><g clip-path="url(#k)" transform="matrix(.13333 0 0 -.13333 0 2200)"><path d="M15312.1 10802.4c-222.7 7.8-393.9 199.8-376.3 421.9l73.2 927.5 1291-1385.3-987.9 35.9" fill="url(#l)" transform="scale(1.05355)"/></g><g clip-path="url(#m)" transform="matrix(.13333 0 0 -.13333 0 2200)"><g clip-path="url(#n)"><path d="M11521 11108v1h-10v1h-6v1h-7v1h-5v1h-4v1h-4v1h-4v1h-4v1h-3v1h-3v1h-2v1h-3v1h-3v1h-2v1h-3v1h-2v1h-3v1h-2v1h-2v1h-2v1h-2v1h-2v1h-2v1h-2v1h-2v1h-1v1h-2v1h-2v1h-1v1h-2v1h-2v1h-1v1h-2v1h-1v1h-2v1h-1v1h-1v1h-2v1h-1v1h-1v1h-2v1h-1v1h-1v1h-2v1h-1v1h-1v1h-2v1h-1v1h-1v1h-1v1h-1v1h-1v1h-1v1h-1v1h-1v1h-1v1h-2v1h-1v1h-1v1h-1v1h-1v2h-1v1h-1v1h-1v1h-1v1h-1v1h-1v1h-1v1h-1v1h-1v1h-1v2h-1v1h-1v1h-1v2h-1v1h-1v1h-1v2h-1v1h-1v1h-1v2h-1v1h-1v1h-1v2h-1v1h-1v2h-1v2h-1v1h-1v2h-1v2h-1v1h-1v2h-1v1h-1v2h-1v2h-1v2h-1v2h-1v2h-1v3h-1v2h-1v2h-1v2h-1v2h-1v3h-1v3h-1v2h-1v3h-1v3h-1v3h-1v3h-1v4h-1v4h-1v4h-1v4h-1v5h-1v7h-1v6h-1v11h-1v27h1v11h1v6h1v7h1v5h1v4h1v4h1v4h1v4h1v3h1v3h1v3h1v3h1v2h1v3h1v3h1v2h1v2h1v2h1v2h1v2h1v3h1v2h1v2h1v2h1v1h1v2h1v2h1v1h1v2h1v2h1v1h1v2h1v2h1v1h1v2h1v1h1v1h1v2h1v1h1v1h1v2h1v1h1v1h1v2h1v1h1v1h1v1h1v2h1v1h1v1h1v1h1v1h1v1h1v1h1v1h1v1h1v1h1v2h1v1h1v1h2v1h1v1h1v1h1v1h1v1h1v1h1v1h1v1h1v1h1v1h2v1h1v1h1v1h1v1h2v1h1v1h1v1h2v1h1v1h1v1h2v1h1v1h1v1h2v1h1v1h2v1h2v1h1v1h2v1h2v1h1v1h2v1h1v1h2v1h2v1h2v1h2v1h2v1h2v1h3v1h2v1h2v1h2v1h3v1h2v1h3v1h3v1h3v1h2v1h4v1h4v1h3v1h4v1h4v1h5v1h7v1h7v1h10v1h3908v-1h10v-1h7v-1h6v-1h5v-1h4v-1h4v-1h4v-1h4v-1h3v-1h3v-1h3v-1h3v-1h2v-1h3v-1h3v-1h2v-1h2v-1h2v-1h2v-1h2v-1h2v-1h2v-1h3v-1h2v-1h1v-1h2v-1h2v-1h1v-1h2v-1h1v-1h2v-1h2v-1h1v-1h2v-1h1v-1h2v-1h1v-1h1v-1h2v-1h1v-1h1v-1h2v-1h1v-1h1v-1h2v-1h1v-1h1v-1h1v-1h1v-1h1v-1h2v-1h1v-1h1v-1h1v-1h1v-1h1v-1h1v-1h1v-1h1v-1h1v-1h1v-1h1v-1h1v-1h1v-1h1v-1h1v-1h1v-1h1v-2h1v-1h1v-1h1v-1h1v-1h1v-1h1v-2h1v-1h1v-1h1v-2h1v-1h1v-1h1v-2h1v-1h1v-1h1v-2h1v-1h1v-2h1v-2h1v-1h1v-2h1v-1h1v-2h1v-2h1v-1h1v-2h1v-2h1v-2h1v-2h1v-2h1v-2h1v-2h1v-2h1v-2h1v-2h1v-3h1v-3h1v-2h1v-3h1v-3h1v-3h1v-2h1v-4h1v-4h1v-4h1v-4h1v-4h1v-6h1v-7h1v-6h1v-14h1v-17h-1v-14h-1v-6h-1v-7h-1v-6h-1v-4h-1v-4h-1v-4h-1v-4h-1v-4h-1v-2h-1v-3h-1v-3h-1v-3h-1v-2h-1v-3h-1v-3h-1v-2h-1v-2h-1v-2h-1v-2h-1v-2h-1v-2h-1v-2h-1v-2h-1v-2h-1v-2h-1v-1h-1v-2h-1v-2h-1v-1h-1v-2h-1v-2h-1v-1h-1v-2h-1v-1h-1v-2h-1v-1h-1v-1h-1v-2h-1v-1h-1v-1h-1v-2h-1v-1h-1v-1h-1v-2h-1v-1h-1v-1h-1v-1h-1v-1h-1v-1h-1v-2h-1v-1h-1v-1h-1v-1h-1v-1h-1v-1h-1v-1h-1v-1h-1v-1h-1v-1h-1v-1h-1v-1h-1v-1h-1v-1h-1v-1h-1v-1h-1v-1h-1v-1h-1v-1h-2v-1h-1v-1h-1v-1h-1v-1h-1v-1h-1v-1h-2v-1h-1v-1h-1v-1h-2v-1h-1v-1h-1v-1h-2v-1h-1v-1h-2v-1h-1v-1h-1v-1h-2v-1h-2v-1h-1v-1h-2v-1h-2v-1h-1v-1h-2v-1h-2v-1h-1v-1h-2v-1h-2v-1h-2v-1h-3v-1h-2v-1h-2v-1h-2v-1h-2v-1h-2v-1h-3v-1h-3v-1h-2v-1h-3v-1h-3v-1h-2v-1h-4v-1h-4v-1h-4v-1h-3v-1h-4v-1h-5v-1h-7v-1h-6v-1h-10v-1" fill="url(#o)"/></g></g><g clip-path="url(#p)" transform="matrix(.13333 0 0 -.13333 0 2200)"><path d="M15538.2 10184.9h-3995.4c-115.6 0-209.3 90.9-209.3 203.1 0 112.2 93.7 203.2 209.3 203.2h3995.4c115.6 0 209.3-91 209.3-203.2 0-112.2-93.7-203.1-209.3-203.1" fill="url(#q)"/></g><g clip-path="url(#r)" transform="matrix(.13333 0 0 -.13333 0 2200)"><path d="M15538.2 9390.71h-3995.4c-115.6 0-209.3 90.95-209.3 203.16 0 112.2 93.7 203.15 209.3 203.15h3995.4c115.6 0 209.3-90.95 209.3-203.15 0-112.21-93.7-203.16-209.3-203.16" fill="url(#s)"/></g><g clip-path="url(#t)" transform="matrix(.13333 0 0 -.13333 0 2200)"><path d="M15538.2 8596.55h-3995.4c-115.6 0-209.3 90.95-209.3 203.16 0 112.2 93.7 203.15 209.3 203.15h3995.4c115.6 0 209.3-90.95 209.3-203.15 0-112.21-93.7-203.16-209.3-203.16" fill="url(#u)"/></g><g clip-path="url(#v)" transform="matrix(.13333 0 0 -.13333 0 2200)"><path d="M15442.8 7359.14H9625.13c-168.3 0-304.74 90.96-304.74 203.16 0 112.21 136.44 203.15 304.74 203.15h5817.67c168.3 0 304.7-90.94 304.7-203.15 0-112.2-136.4-203.16-304.7-203.16" fill="url(#w)"/></g><g clip-path="url(#x)" transform="matrix(.13333 0 0 -.13333 0 2200)"><path d="M15442.8 6564.98H9625.13c-168.3 0-304.74 90.96-304.74 203.16s136.44 203.16 304.74 203.16h5817.67c168.3 0 304.7-90.96 304.7-203.16s-136.4-203.16-304.7-203.16" fill="url(#y)"/></g><g clip-path="url(#z)" transform="matrix(.13333 0 0 -.13333 0 2200)"><path d="M15442.8 5770.8H9625.13c-168.3 0-304.74 91-304.74 203.2 0 112.2 136.44 203.1 304.74 203.1h5817.67c168.3 0 304.7-90.9 304.7-203.1 0-112.2-136.4-203.2-304.7-203.2" fill="url(#A)"/></g><g clip-path="url(#B)" transform="matrix(.13333 0 0 -.13333 0 2200)"><path d="M15442.8 4533.4H9625.13c-168.3 0-304.74 91-304.74 203.2 0 112.2 136.44 203.1 304.74 203.1h5817.67c168.3 0 304.7-90.9 304.7-203.1 0-112.2-136.4-203.2-304.7-203.2" fill="url(#C)"/></g><g clip-path="url(#D)" transform="matrix(.13333 0 0 -.13333 0 2200)"><path d="M15442.8 3739.3H9625.13c-168.3 0-304.74 90.9-304.74 203.1 0 112.2 136.44 203.2 304.74 203.2h5817.67c168.3 0 304.7-91 304.7-203.2 0-112.2-136.4-203.1-304.7-203.1" fill="url(#E)"/></g><g clip-path="url(#F)" transform="matrix(.13333 0 0 -.13333 0 2200)"><path d="M15442.8 2945.1H9625.13c-168.3 0-304.74 90.9-304.74 203.2 0 112.2 136.44 203.1 304.74 203.1h5817.67c168.3 0 304.7-90.9 304.7-203.1 0-112.3-136.4-203.2-304.7-203.2" fill="url(#G)"/></g><path d="M1400.827 1053.793h-375.322c-28.277 0-51.2-22.924-51.2-51.201V661.747c0-28.28 22.923-51.2 51.2-51.2h375.322c28.28 0 51.2 22.92 51.2 51.2v340.845c0 28.277-22.92 51.201-51.2 51.201" fill="#7d97f4"/><path d="M1251.484 851.04l-32.001-105.12c-1.964-6.453-11.12-6.387-12.976.093-8.424 29.44-23.659 78.934-31.727 104.974-2.65 8.56 3.747 17.214 12.7 17.214h51.29c8.925 0 15.314-8.628 12.714-17.161zm102.063 152.003h-40.18c-8.819 0-16.626-5.7-19.311-14.1l-16.468-51.5a14.755 14.755 0 00-14.055-10.263h-99.705a14.757 14.757 0 00-14.068 10.301l-16.276 51.407a20.274 20.274 0 01-19.328 14.155h-39.432c-14.072 0-23.864-13.987-19.05-27.21l101.909-279.953c7.398-20.333 26.721-33.867 48.353-33.867h18.739c21.77 0 41.186 13.707 48.482 34.227l99.496 279.733c4.694 13.2-5.093 27.07-19.106 27.07" fill="#fff"/><path d="M1006.317 902.35h-2.461V695.986c0-26.747 21.759-48.507 48.507-48.507h88.162v2.467h-88.162c-25.39 0-46.046 20.653-46.046 46.04v206.362" fill="#bdd0fb"/><g clip-path="url(#H)" transform="matrix(.13333 0 0 -.13333 0 2200)"><path d="M7297.8 1477.8c-27.09 0-51.01 17.5-55.67 42.1l-879.32 4654.7c-5.19 27.5 15.55 53.5 46.34 58.2 30.79 4.6 59.95-13.9 65.15-41.4l879.31-4654.7c5.19-27.5-15.55-53.5-46.33-58.2-3.18-.5-6.36-.7-9.48-.7" fill="url(#I)"/></g><g clip-path="url(#J)" transform="matrix(.13333 0 0 -.13333 0 2200)"><path d="M4331.32 1477.8c-3.7 0-7.46.3-11.23 1-30.6 5.5-50.41 32.2-44.24 59.5l1036.56 4594.1c6.17 27.3 35.93 45.2 66.59 39.5 30.6-5.5 50.41-32.1 44.24-59.4L4386.68 1518.3c-5.41-23.9-28.99-40.5-55.36-40.5" fill="url(#K)"/></g><g clip-path="url(#L)" transform="matrix(.13333 0 0 -.13333 0 2200)"><path d="M6626.86 5024.3H5124.21c-31.21 0-56.52 22.6-56.52 50.5s25.31 50.5 56.52 50.5h1502.65c31.21 0 56.52-22.6 56.52-50.5s-25.31-50.5-56.52-50.5" fill="url(#M)"/></g><g clip-path="url(#N)" transform="matrix(.13333 0 0 -.13333 0 2200)"><path d="M6599.61 5024.3H5151.5c-30.09 0-54.48 22.6-54.48 50.5s24.39 50.5 54.48 50.5h1448.11c30.09 0 54.48-22.6 54.48-50.5s-24.39-50.5-54.48-50.5" fill="url(#O)"/></g><g clip-path="url(#P)" transform="matrix(.13333 0 0 -.13333 0 2200)"><path d="M6626.86 4182.7H5124.21c-31.21 0-56.52 22.6-56.52 50.5s25.31 50.5 56.52 50.5h1502.65c31.21 0 56.52-22.6 56.52-50.5s-25.31-50.5-56.52-50.5" fill="url(#Q)"/></g><g clip-path="url(#R)" transform="matrix(.13333 0 0 -.13333 0 2200)"><path d="M6763.3 4182.7H4941.55c-31.22 0-56.53 22.6-56.53 50.5s25.31 50.5 56.53 50.5H6763.3c31.21 0 56.52-22.6 56.52-50.5s-25.31-50.5-56.52-50.5" fill="url(#S)"/></g><g clip-path="url(#T)" transform="matrix(.13333 0 0 -.13333 0 2200)"><path d="M6626.86 3341H5124.21c-31.21 0-56.52 22.6-56.52 50.5s25.31 50.5 56.52 50.5h1502.65c31.21 0 56.52-22.6 56.52-50.5s-25.31-50.5-56.52-50.5" fill="url(#U)"/></g><g clip-path="url(#V)" transform="matrix(.13333 0 0 -.13333 0 2200)"><path d="M6937.3 3341H4756.68c-31.22 0-56.53 22.6-56.53 50.5s25.31 50.5 56.53 50.5H6937.3c31.22 0 56.53-22.6 56.53-50.5s-25.31-50.5-56.53-50.5" fill="url(#W)"/></g><g clip-path="url(#X)" transform="matrix(.13333 0 0 -.13333 0 2200)"><path d="M6626.86 2499.4H4581.38c-31.22 0-56.53 22.6-56.53 50.5s25.31 50.5 56.53 50.5h2045.48c31.21 0 56.52-22.6 56.52-50.5s-25.31-50.5-56.52-50.5" fill="url(#Y)"/></g><g clip-path="url(#Z)" transform="matrix(.13333 0 0 -.13333 0 2200)"><path d="M7078.05 2499.4H4581.38c-31.22 0-56.53 22.6-56.53 50.5s25.31 50.5 56.53 50.5h2496.67c31.22 0 56.53-22.6 56.53-50.5s-25.31-50.5-56.53-50.5" fill="url(#aa)"/></g><g clip-path="url(#ab)" transform="matrix(.13333 0 0 -.13333 0 2200)"><path d="M5275 5324.9s-36.67-57.8-45.89-219.7c-.86-15.1 11.09-27.9 26.19-27.9h286.8c11.54 0 19.78 11.3 16.09 22.2-16.81 49.8-67.63 171.1-181.01 240.4l-102.18-15" fill="url(#ac)"/></g><g clip-path="url(#ad)" transform="matrix(.13333 0 0 -.13333 0 2200)"><path d="M5262.54 5434.5l16.22-136c1.41-11.7 10.6-21.1 22.34-22.5 15.69-1.8 38.49-3.1 60.65.6 20.14 3.3 34.64 21.3 34.64 41.7v131.3l-133.85-15.1" fill="url(#ae)"/></g><g clip-path="url(#af)" transform="matrix(.13333 0 0 -.13333 0 2200)"><path d="M5984.61 5339.9s-54.89-85.4-53.72-202.5c.28-27.6 23.38-49.5 50.97-49.5h445.44c20.85 0 29.32 26.7 12.26 38.7-84.3 59.2-249.97 169.8-369.79 213.3h-85.16" fill="url(#ag)"/></g><g clip-path="url(#ah)" transform="matrix(.13333 0 0 -.13333 0 2200)"><path d="M5938.75 5486.8l34.59-168c3.87-18.8 22.26-31.5 40.98-27.3 11.38 2.6 24.81 7.4 39.16 16.4 13.63 8.5 20.54 24.7 17.76 40.6l-35.79 203.5-96.7-65.2" fill="url(#ai)"/></g><g clip-path="url(#aj)" transform="matrix(.13333 0 0 -.13333 0 2200)"><path d="M5326.1 7822.39s-120.31-106.07-142.95-233.68C5160.51 7461.1 5247.3 5387 5247.3 5387s120.3-20 182.31 17.6c0 0 73.56 1346.04 129.47 1657.09 0 0 293.21-1394.39 374.45-1646.29 0 0 115.89-14.1 153.27 7.9 0 0-76.8 1807.52-173.31 2128.86l-587.39 270.23" fill="url(#ak)"/></g><g clip-path="url(#al)" transform="matrix(.13333 0 0 -.13333 0 2200)"><path d="M5555.58 7104.65c-6.16 0-11.78 4.13-13.4 10.36l-49.74 190.8-105.84 67.88c-6.44 4.13-8.32 12.71-4.19 19.14 4.13 6.42 12.73 8.31 19.14 4.17l110.4-70.81c2.93-1.87 5.05-4.78 5.93-8.15l51.1-196.04c1.93-7.41-2.51-14.97-9.91-16.89-1.16-.32-2.34-.46-3.49-.46" fill="url(#am)"/></g><g clip-path="url(#an)" transform="matrix(.13333 0 0 -.13333 0 2200)"><path d="M6513.33 9020.84c-506.46 42.05-638.83-62.76-638.83-62.76l243.39-384.23s497.64 9.83 854.21 284.66c-66.73 71.87-113.08 151.29-142.8 213.14-91.95-38.21-197.84-60.61-315.97-50.81" fill="url(#ao)"/></g><g clip-path="url(#ap)" transform="matrix(.13333 0 0 -.13333 0 2200)"><path d="M7306.43 9764.24c-.69 16.23-22.68 20.65-29.58 5.94l-64.62-137.9a143.657 143.657 0 01-11.47-85.48l22.67-80.26c6.78-39.14-3.44-79.25-28.25-110.27-59.38-74.23-185.85-209.81-365.88-284.62 29.72-61.85 76.07-141.27 142.8-213.14 130.84 100.84 242.71 237.31 304.01 422.13 29.36 9.02 48.99 36.67 47.82 67.37l-17.5 416.23" fill="url(#aq)"/></g><g clip-path="url(#ar)" transform="matrix(.13333 0 0 -.13333 0 2200)"><path d="M6680.03 8798.08c-178.29 192.11-517.89 278.91-714.51 314.56-86.14 15.62-171.05-32.31-201.57-114.36-88.49-237.86-329.14-856.68-375.78-963.03-38.26-87.25-78.22-172.47-103.61-225.75-15.17-31.82-1.92-69.91 29.84-85.22 165.43-79.74 463.1-169.95 583.77-205.14 26.55-7.74 52.98 12.19 52.98 39.83 0 23.45 6.37 46.47 18.43 66.58l457.04 761.6c284.86-315.85 534.33-344.74 725.97-275.6-32.22 99.58-53.31 199.36-63.42 299.32-283.12 48.5-409.14 387.21-409.14 387.21" fill="url(#as)"/></g><g clip-path="url(#at)" transform="matrix(.13333 0 0 -.13333 0 2200)"><path d="M7557.11 8463.87l-51.09 68.13c-165.41-113.6-303.67-140.53-416.85-121.13 10.11-99.96 31.2-199.74 63.42-299.32 252.46 91.08 404.52 352.32 404.52 352.32" fill="url(#au)"/></g><g clip-path="url(#av)" transform="matrix(.13333 0 0 -.13333 0 2200)"><path d="M7521.08 8462.64l287.85-11.22 265.02 148.02c-38.04 23.85-253.16-24.89-253.16-24.89s-224.89 34-285.76 34.09c-50.55.06-43.33-72.63-39.42-97.27.79-5.02 1.45-8.05 1.45-8.05l24.02-40.68" fill="url(#aw)"/></g><g clip-path="url(#ax)" transform="matrix(.13333 0 0 -.13333 0 2200)"><path d="M6235.97 9465.47l-151.88-370.6s174.5-120.79 314.9-109.29l75.8 333.24-238.82 146.65" fill="url(#ay)"/></g><g clip-path="url(#az)" transform="matrix(.13333 0 0 -.13333 0 2200)"><path d="M6492.51 9718.12c3.48-4.93 109.87-389.28 109.87-389.28l-220.75-56.09-154.96 349.32s207.61 178.55 265.84 96.05" fill="url(#aA)"/></g><g clip-path="url(#aB)" transform="matrix(.13333 0 0 -.13333 0 2200)"><path d="M6309.79 9568.99l67.18-190.27c.86-2.44 2.01-4.7 3.5-6.81 9.12-12.95 43.75-55.22 84.83-17.14 37.27 34.54 71.8 65.5 103.69 71.13 14.32 2.52 28.19-6.22 32.06-20.23 9.66-34.92 29.97-114.02 37.12-185.44 1.46-14.49-8.55-27.59-22.86-30.3-43.11-8.19-134.53-22.92-210.85-17.54-10.34.73-19.44 6.94-23.75 16.36-21.03 45.96-85.48 185.4-109.44 221.48-22.5 33.87-77.64 32.91-100.77 30.87-7.58-.68-15.04 1.77-20.76 6.79-20.23 17.73-58.74 63.01-4.58 117.22 11.34 11.34 11.04 29.64-.65 40.63-23.26 21.87-48.14 60.66-9.38 108.77 39.39 48.9 91.39 41.12 123.25 29.49 12.88-4.7 26.94.75 33.94 12.54 3.98 6.71 10.94 11.79 23 10.75 16.25-1.39 29.91 12.17 29.62 28.47-.56 31.33 10.65 70.91 65 87.82 96.43 30.02 156.56-63.15 162.52-132.66 5.96-69.52-100.44-96.12-163.01-91.43-47.57 3.57-82.89-43.58-97.09-66.39-4.5-7.23-5.4-16.08-2.57-24.11" fill="url(#aC)"/></g><g clip-path="url(#aD)" transform="matrix(.13333 0 0 -.13333 0 2200)"><path d="M6296.42 9341.2s-15.58 120.68-65.79 126.6c-50.2 5.91-99.06-35.35-49.15-103.09 62.08-84.26 114.94-23.51 114.94-23.51" fill="url(#aE)"/></g><g clip-path="url(#aF)" transform="matrix(.13333 0 0 -.13333 0 2200)"><path d="M15901.9 8835.33s-90.8-4.8-102-191.58c0 0 210.5-188.71 494.9-233.63 21.4-3.37-29.8 145.73-37.5 165.93-36.6 96.1-152 157.99-355.4 259.28" fill="url(#aG)" transform="scale(1.19387)"/></g><g clip-path="url(#aH)" transform="matrix(.13333 0 0 -.13333 0 2200)"><path d="M15008.2 9133.33h193.3s593.1 655.01 982.1 721.09c0 0 270.8-345.64-14.5-991.46-22.9-51.96-87.1-75.04-134.9-44.48-14.4 9.16-24.7 21.41-30.8 36.77l22.9 551.44s-505.9-442.48-593.9-527.87c-87.9-85.4-534.9-33.35-424.2 254.51" fill="url(#aI)" transform="scale(1.18362)"/></g><g clip-path="url(#aJ)" transform="matrix(.13333 0 0 -.13333 0 2200)"><path d="M16297.8 7492.07c-78.2 68.53-202.8 145.42-382.7 167.46l-60.8-37.2s38.7-57.22 109.6-117.66c65.1-37.83 165.7-89.07 249.1-100.17 81-10.8 93 38.18 84.8 87.57" fill="url(#aK)" transform="scale(1.22564)"/></g><path d="M2587.876 834.847c-7.87 2.548-11.333 13.702-31.317 6.326-19.33-7.137-33.695-16.34-41.086-21.646a88.93 88.93 0 00-.399 4.541s35.324 33.61 80.591 40.759c3.4.537 6.097-2.856 4.868-6.07-2.202-5.77-6.16-14.518-12.657-23.91M2673.004 985.212c-2.513-2.864-5.732-6.151-9.624-9.562 1.347 8.071-.624 16.075-13.86 14.31-13.63-1.813-30.068-10.187-40.71-16.368 13.335 11.377 33.649 23.452 59.267 22.743 5.682-.158 8.687-6.848 4.927-11.123" fill="#7d97f4"/><g clip-path="url(#aL)" transform="matrix(.13333 0 0 -.13333 0 2200)"><path d="M14804.3 8867.12l892.2-9.67s509.5-421.54 601.9-1064.33c0 0 15.3-47.28-76.8-55.37 0 0-308 201.19-508.9 556.91-246.2 436.14-642.4 280.45-642.4 280.45-480.7-163.84-645.3 79.43-649.3 136.98l383.3 155.03" fill="url(#aM)" transform="scale(1.20049)"/></g><g clip-path="url(#aN)" transform="matrix(.13333 0 0 -.13333 0 2200)"><path d="M15491.7 10016.7s100.4-503 592.2-701.97l174.8 20.61 41.3-65.81-410.2-13.08s-350.8 138.91-536.7 517.45c-6.1 12.5-108.4 223.79 138.6 242.8" fill="url(#aO)" transform="scale(1.14885)"/></g><g clip-path="url(#aP)" transform="matrix(.13333 0 0 -.13333 0 2200)"><path d="M16283.1 9713.93s-119.5 324.97-145.2 640.67c0 0 87.4 75.2 142.1 107.6 17.7 10.5 24.4 32.7 15.4 51.3-40.2 83.2-283.1 410.2-301.4 414.7-99 24.7-504.8 217.7-790.6-173.3-122.7-167.8 24.3-684.3 580.8-1219.26l18.5-3.52c62.4-11.94 127-2.46 183.3 26.91l297.1 154.9" fill="url(#aQ)" transform="scale(1.09681)"/></g><g clip-path="url(#aR)" transform="matrix(.13333 0 0 -.13333 0 2200)"><path d="M15203.1 9880.86s319.1-377.88 727.1-433.11c0 0 105.5 96.14 183.9 61.81 78.4-34.32 185.9-185.81 185.9-185.81h-523.9s-495.4 17.45-742.9 317.83c19.9 105.11 79.6 167.9 169.9 239.28" fill="url(#aS)" transform="scale(1.1415)"/></g><g clip-path="url(#aT)" transform="matrix(.13333 0 0 -.13333 0 2200)"><path d="M16061.4 11514.2l-74.7-249.1c-3.4-11.4.8-23.8 10.7-30.5 35.9-24.6 129.9-73.6 258.7-26 14.9 5.4 25 19.2 26.2 34.9l17.7 217-238.6 53.7" fill="url(#aU)" transform="scale(1.06726)"/></g><g clip-path="url(#aV)" transform="matrix(.13333 0 0 -.13333 0 2200)"><path d="M16300 11574.8s-36.3-255.1-134.3-333.5c-98-78.5-288.9-19.4-353.4 172.9l128.5 328.8 359.2-168.2" fill="url(#aW)" transform="scale(1.08028)"/></g><g clip-path="url(#aX)" transform="matrix(.13333 0 0 -.13333 0 2200)"><path d="M15770 11417.1c7.4-2.4 15.1 2.3 16.3 10 3.5 23.3 12.2 69.5 29.9 100.9 0 0-9.2 33.1 83.8-16.9 93-50.1 232.7-123.6 314.9-79.8 80.2 42.7 161.5 257.5-50.5 217.7-8-1.5-15.5 4.9-14.8 13.1 2.6 35.3-.9 116.6-83.2 142.7-76.9 24.4-119.1-10.4-136.5-31.4-5.2-6.1-14.6-6-19.5.3-23.1 30.1-85.7 94.2-177.9 53.6-76-33.5-87.8-80.2-86.5-109.4.4-9.4-9.2-15.9-17.8-11.9-23.3 10.7-60.7 16.3-96.5-28.6-49.5-62.1 21.3-115.9 42.5-130 3.5-2.4 5.6-6.2 5.7-10.4.2-32.3 5.2-173.1 75.8-252.5 6.1-6.9 17.4-4.9 21 3.6l54.3 129.5c2.5 6 9.2 9.1 15.5 7.1l23.5-7.6" fill="url(#aY)" transform="scale(1.09098)"/></g><g clip-path="url(#aZ)" transform="matrix(.13333 0 0 -.13333 0 2200)"><path d="M16300 11772.7s-34.3 139.7-86.4 94.4c-52.1-45.4 13.6-145.2 73.2-164.3l13.2 69.9" fill="url(#ba)" transform="scale(1.05559)"/></g><g clip-path="url(#bb)" transform="matrix(.13333 0 0 -.13333 0 2200)"><path d="M15653.1 8940.03l226.3 754.53c9.2 30.79 36.5 52.62 68.6 54.81l305.5 20.91c31 2.12 54.1-28.21 43.8-57.58l-253-720.58c-8-23.21-28.9-39.62-53.4-42.09l-300.8-33.41-37 23.41" fill="url(#bc)" transform="scale(1.18675)"/></g><g clip-path="url(#bd)" transform="matrix(.13333 0 0 -.13333 0 2200)"><path d="M16269.6 9245.95l-1.6.04-664.6 33.59c-16.4.83-29.1 14.83-28.3 31.25.9 16.44 15 29.35 31.3 28.25l664.7-33.59c16.4-.83 29.1-14.82 28.2-31.25-.8-15.92-14-28.29-29.7-28.29" fill="url(#be)" transform="scale(1.14448)"/></g><g clip-path="url(#bf)" transform="matrix(.13333 0 0 -.13333 0 2200)"><path d="M16293.3 10448.1c-3.5 0-6.3 2.8-6.3 6.3.5 146.2-55.9 340.2-56.5 342.2-1 3.3.9 6.8 4.2 7.8 3.4 1 6.8-1 7.9-4.3.5-1.9 57.4-197.8 56.9-345.8 0-3.4-2.7-6.2-6.2-6.2" fill="url(#bg)" transform="scale(1.08635)"/></g><g clip-path="url(#bh)" transform="matrix(.13333 0 0 -.13333 0 2200)"><path d="M16293.7 10583.3c-2 0-3.7.8-5.1 2.4-1.6 2-157.8 200.6-211.5 336.8-1.3 3.3.3 7 3.6 8.3 3.3 1.4 7-.3 8.2-3.6 53.2-134.4 208.2-331.6 209.8-333.6 2.1-2.7 1.7-6.8-1-9-1.3-.9-2.7-1.3-4-1.3" fill="url(#bi)" transform="scale(1.06509)"/></g><g clip-path="url(#bj)" transform="matrix(.13333 0 0 -.13333 0 2200)"><path d="M16269 10404.1l-4.8 2.1c-228.9 98-370.3 371.3-371.8 374.1-1.6 3.2-.3 7.1 2.9 8.7 3.2 1.6 7.1.4 8.7-2.8 1.4-2.7 138.8-268.1 360.6-366l23.1 32.8c2.1 2.9 6.2 3.6 9.1 1.6 2.9-2.1 3.6-6.2 1.5-9.1l-29.3-41.4" fill="url(#bk)" transform="scale(1.05233)"/></g><path d="M1988.42 1514.694s-2.83-340.277 250.945-365.791c253.775-25.516 411.406 84.63 332.599 183.462-78.824 98.835-197.345 186.623-303.067 115.636-105.721-70.974-216.354-71.454-280.477 66.693" fill="#91b3fa"/><g clip-path="url(#bl)" transform="matrix(.13333 0 0 -.13333 0 2200)"><path d="M16283.8 5952.7c-3 0-6 .8-8.6 2.51-76.1 47.93-154.4 92.69-232.8 133.09-8 4.09-11.2 13.89-7.1 21.87 4.2 7.95 13.9 11.12 21.9 6.99 79.3-40.81 158.4-86.05 235.3-134.49 7.6-4.77 9.9-14.8 5.1-22.39-3.1-4.9-8.4-7.58-13.8-7.58" fill="url(#bm)" transform="scale(1.13761)"/></g><g clip-path="url(#bn)" transform="matrix(.13333 0 0 -.13333 0 2200)"><path d="M16282.9 6316.46c-2.3 0-4.5.46-6.8 1.42-254 112.18-519.5 187.18-788.8 222.86-9.1 1.21-15.5 9.57-14.4 18.69 1.2 9.09 9.7 15.46 18.7 14.3 272.6-36.1 541-111.95 798-225.4 8.4-3.73 12.2-13.55 8.5-21.96-2.8-6.21-8.8-9.91-15.2-9.91" fill="url(#bo)" transform="scale(1.11006)"/></g><g clip-path="url(#bp)" transform="matrix(.13333 0 0 -.13333 0 2200)"><path d="M15552.2 6935.2c-8 0-15.2 5.4-17.2 13.48-2.3 9.51 3.5 19.13 13 21.48 3.2.8 324.3 79 734.5 64.47 9.8-.36 17.5-8.56 17.1-18.35-.3-9.79-8.2-18.14-18.3-17.1-405 14.14-721.6-62.67-724.8-63.45-1.4-.35-2.8-.53-4.3-.53" fill="url(#bq)" transform="scale(1.04107)"/></g><g clip-path="url(#br)" transform="matrix(.13333 0 0 -.13333 0 2200)"><path d="M16283.3 5892.42c-3 0-6.2.84-9 2.6-102.2 65.4-220.6 120.8-351.8 164.73-8.7 2.9-13.4 12.31-10.5 20.99 2.9 8.66 12.3 13.34 21 10.46 133.8-44.79 254.7-101.39 359.2-168.23 7.7-4.95 10-15.2 5-22.92-3.1-4.93-8.4-7.63-13.9-7.63" fill="url(#bs)" transform="scale(1.11405)"/></g><g clip-path="url(#bt)" transform="matrix(.13333 0 0 -.13333 0 2200)"><path d="M16282.1 6366.05c-1.2 0-2.3.12-3.5.35-571 117.95-1145.4 34.89-1151.1 34.03-9.4-1.21-18.2 5.1-19.5 14.5-1.4 9.41 5 18.19 14.4 19.58 5.8.86 586.2 84.79 1163.1-34.36 9.4-1.94 15.3-11.04 13.4-20.36-1.7-8.14-8.9-13.74-16.8-13.74" fill="url(#bu)" transform="scale(1.07227)"/></g><g clip-path="url(#bv)" transform="matrix(.13333 0 0 -.13333 0 2200)"><path d="M16283.5 5424.84c-3.4 0-6.8 1.16-9.8 3.3-76 57.12-164.6 108.26-263.2 152.02-8.3 3.65-12 13.36-8.4 21.74 3.7 8.29 13.4 12.03 21.7 8.29 101-44.73 191.7-97.13 269.6-155.68 7.3-5.43 8.8-15.77 3.3-23.08-3.2-4.27-8.1-6.59-13.2-6.59" fill="url(#bw)" transform="scale(1.12221)"/></g><g clip-path="url(#bx)" transform="matrix(.13333 0 0 -.13333 0 2200)"><path d="M16283 5808.78c-1.8 0-3.5.28-5.3.83-228.2 73.59-497.8 118.58-801.2 133.7-9.3.46-16.6 8.43-16.1 17.73.5 9.32 8.6 16.42 17.8 16.07 306.3-15.26 578.8-60.74 809.9-135.24 9-2.94 13.8-12.47 11-21.36-2.4-7.15-9-11.73-16.1-11.73" fill="url(#by)" transform="scale(1.09123)"/></g><g clip-path="url(#bz)" transform="matrix(.13333 0 0 -.13333 0 2200)"><path d="M15854.7 6318.89c-9.1 0-16.9 6.83-17.9 16.1-1.1 9.9 6 18.77 16 19.81 1.8.19 177.4 18.59 429.2 16.73 10-.07 18-8.21 17.9-18.16-.1-9.89-8.1-17.89-18.1-17.89h-.1c-249.8 1.66-423.3-16.3-425.1-16.49l-1.9-.1" fill="url(#bA)" transform="scale(1.0246)"/></g><g clip-path="url(#bB)" transform="matrix(.13333 0 0 -.13333 0 2200)"><path d="M16299.5 2491.89c-1 13.61-15 25.34-38.4 34.74 25.5 14.09 39.6 29.15 38.4 43.97-3.5 44.7-145.3 69.81-316.5 55.96-171.2-13.76-307-61.22-303.4-106 1.1-13.53 15-25.27 38.5-34.74-25.5-14.01-39.7-29.08-38.5-43.9 1.1-13.52 15-25.34 38.5-34.74-25.5-14.09-39.7-29.15-38.5-43.89 1.1-13.61 15-25.35 38.5-34.74-25.5-14.09-39.7-29.16-38.5-43.97 1.6-19.76 30.3-35.72 76.4-46.16-.5-14.58-.2-30.61 1.3-48.35 6.7-82.44 99.4-147.06 222-147.06 122.7 0 228.9 88.11 230.1 170.87.2 20.24-.6 38.06-2.4 53.93 58.7 19.6 94.4 43.57 92.5 66.81-1 13.53-15 25.27-38.4 34.66 25.5 14.09 39.6 29.15 38.4 43.98-1 13.52-15 25.26-38.4 34.74 25.5 14.01 39.6 29.15 38.4 43.89" fill="url(#bC)" transform="scale(1.23485)"/></g><g clip-path="url(#bD)" transform="matrix(.13333 0 0 -.13333 0 2200)"><path d="M16010.7 2235.52c-51.2 0-98 3.83-136.8 11.25-2.2.41-3.6 2.52-3.2 4.81.4 2.28 2.6 3.75 4.8 3.26 60.6-11.58 141.4-14.11 227.7-7.18 70.6 5.71 136.6 17.12 191 32.94 2.2.65 4.5-.57 5.2-2.77.6-2.2-.7-4.57-2.9-5.14-54.9-16.06-121.5-27.55-192.6-33.26-32.1-2.61-63.4-3.91-93.2-3.91" fill="url(#bE)" transform="scale(1.22661)"/></g><g clip-path="url(#bF)" transform="matrix(.13333 0 0 -.13333 0 2200)"><path d="M15953 2306.38c-66.2 0-125.4 6.26-167.2 18.12-2.2.65-3.5 2.92-2.8 5.12.6 2.19 2.8 3.41 5 2.84 59.6-16.98 155.4-22.26 256.4-14.05 99.9 8.04 193.1 28.26 249.3 54.17 2 .98 4.4.09 5.4-2.03 1-2.03.1-4.46-2-5.44-57-26.31-151.2-46.87-252.1-54.99-31.4-2.52-62.4-3.74-92-3.74" fill="url(#bG)" transform="scale(1.2311)"/></g><g clip-path="url(#bH)" transform="matrix(.13333 0 0 -.13333 0 2200)"><path d="M15952.2 2385.18c-71.6 0-134.1 7.31-176.3 21.28-2.2.65-3.3 3-2.6 5.2.7 2.11 3 3.33 5.2 2.59 58.7-19.33 158-25.66 265.9-16.97 99.9 8.04 193.1 28.35 249.3 54.18 2 .97 4.4.08 5.4-1.95 1-2.11.1-4.55-2-5.52-57-26.24-151.3-46.79-252.1-54.92-31.9-2.59-63.1-3.89-92.8-3.89" fill="url(#bI)" transform="scale(1.2311)"/></g><g clip-path="url(#bJ)" transform="matrix(.13333 0 0 -.13333 0 2200)"><path d="M15954.3 2464.38c-56.7 0-108.3 4.63-148.5 13.56-2.2.49-3.6 2.68-3.1 4.88.5 2.19 2.7 3.65 4.9 3.16 60.4-13.4 147.2-16.89 238.4-9.58 99 8.04 191.7 28.03 248 53.69 2 .9 4.5 0 5.4-2.03 1-2.11.1-4.54-2-5.52-57.1-26-150.9-46.31-250.8-54.35-31.5-2.52-62.6-3.81-92.3-3.81" fill="url(#bK)" transform="scale(1.23098)"/></g><g clip-path="url(#bL)" transform="matrix(.13333 0 0 -.13333 0 2200)"><path d="M15483.9 2418.9c-13 0-25.6.63-37.7 1.8-77.1 7.85-139.1 39.41-188.7 83.06-93.6 82.2-143.5 207.18-168.8 296.91-20.1 71.36-54.4 138.09-100.5 196.18-98.8 124.51-259.9 377.69-279.8 723.27-23.5 409.72 268.3 652.69 597.3 710.08 50.5 8.79 101.8 13.18 153 13.18 11.7 0 23.5-.23 35.3-.7 12.8-.47 25.5-1.26 38.2-2.36 63.6-5.33 127.2-17.27 188.9-35.4 282.5-82.9 526.9-295.42 571.4-599.23 8-53.85 9.5-110.61 4-170.04-4.7-49.85-13.5-97.58-25.2-143.12-56.4-217.46-183.7-384.59-282.8-488.22-3.1-3.22-6.1-6.36-9-9.58-49-53.38-88.5-114.38-117.6-180.32-13.3-30.15-24.5-61.39-33.3-93.35-30.6-110.61-97.3-244.46-242.1-287.88-25.2-7.53-52.9-12.4-83.1-13.81-6.6-.31-13.1-.47-19.5-.47m574.9 846.6c-7.5 0-14.9-3.93-18.9-10.92-19.5-33.83-41.7-67.43-65.8-99.94-7.1-9.57-5.2-23.23 4.5-30.38a21.8 21.8 0 0113-4.31c6.6 0 13.1 3.06 17.5 8.79 25 33.84 48.1 68.85 68.5 104.18 6 10.36 2.4 23.63-8 29.67-3.4 1.96-7.2 2.91-10.8 2.91m69.1 753.72c-3 0-6.1-.7-9.1-2.04-10.9-4.94-15.7-17.9-10.7-28.81 1.4-2.91 130.4-292.12-19.4-636.99-4.7-11.07.3-23.86 11.3-28.65 2.8-1.26 5.8-1.81 8.7-1.81 8.4 0 16.4 4.87 19.9 13.11 157.4 362.54 24.8 659.99 19.1 672.47-3.7 8.01-11.5 12.72-19.8 12.72m-728.6-440.8l72.2-160.94.1-.16c1.1-2.59 3.3-4.79 6.4-6.2 2.1-1.02 4.4-1.49 6.6-1.49 4.9 0 9.7 2.28 12.2 6.36l69.8 111.87 26.2-56.6.3-.47.6-1.18c2.5-4.01 7.2-6.28 12.2-6.28 2.2 0 4.4.39 6.5 1.41l94 43.96c6.8 3.14 9.2 10.37 5.6 16.18-2.4 4-7.2 6.28-12.1 6.28-2.3 0-4.5-.47-6.6-1.42l-79.2-37.05-27.6 78.43c-1.4 4.08-4.7 7.69-9.5 9.65-2.6 1.1-5.3 1.57-7.9 1.57-6.8 0-13.4-3.37-16.5-9.03l-.1-.31-65.3-118.78-60.4 169.18-.1.24c-1.5 4.16-4.6 7.85-9.2 10.36-3.6 1.96-7.6 2.9-11.5 2.9-7.2 0-14.3-3.14-18.4-8.79l-91.1-125.45c-3.7-5.18-2.5-12.09 3.2-15.86 2.5-1.73 5.5-2.51 8.5-2.51 4 0 8.1 1.57 10.9 4.63l80.2 89.5" fill="url(#bM)" transform="scale(1.2738)"/></g><g clip-path="url(#bN)" transform="matrix(.13333 0 0 -.13333 0 2200)"><path d="M16118.8 2608.31l147.3 958.4c3.1 19.75 12.9 33.07 21.8 29.66 9-3.41 13.8-22.19 10.7-42.01l-.2-1.71-167.8-949.46c-1.3-7.15-4.9-11.62-8.2-10.08-3.1 1.55-4.7 8.29-3.6 15.2" fill="url(#bO)" transform="scale(1.23049)"/></g><g clip-path="url(#bP)" transform="matrix(.13333 0 0 -.13333 0 2200)"><path d="M16299 2654.94l-150.4 978.4c-3.1 20.24-13 33.77-22.2 30.28-9.2-3.4-14.1-22.65-11-42.81l.3-1.74 171.4-969.35c1.2-7.31 4.9-11.87 8.2-10.29 3.2 1.57 4.8 8.46 3.7 15.51" fill="url(#bQ)" transform="scale(1.20534)"/></g><g clip-path="url(#bR)" transform="matrix(.13333 0 0 -.13333 0 2200)"><path d="M16061.7 3536.7c-2.3 0-4.7.49-6.9 1.55-3.2 1.46-5.4 3.74-6.6 6.43l-.1.16-74.9 166.94-83.2-92.83c-2.9-3.18-7.1-4.81-11.3-4.81-3.1 0-6.2.82-8.8 2.61-5.9 3.91-7.2 11.07-3.4 16.45l94.6 130.12c4.2 5.87 11.5 9.12 19 9.12 4.1 0 8.3-.97 12-3.01 4.7-2.6 8-6.43 9.5-10.75l.1-.24 62.7-175.49 67.7 123.21.1.32c3.2 5.87 10.1 9.37 17.2 9.37 2.6 0 5.4-.49 8.1-1.63 5-2.04 8.5-5.78 9.9-10.01l28.6-81.35 82.2 38.43c2.2.98 4.5 1.47 6.8 1.47 5.1 0 10-2.36 12.6-6.52 3.7-6.02 1.2-13.52-5.8-16.77l-97.6-45.6c-2.2-1.06-4.5-1.47-6.7-1.47-5.2 0-10.1 2.36-12.7 6.52l-.6 1.22-.3.48-27.2 58.72-72.3-116.04c-2.6-4.24-7.6-6.6-12.7-6.6" fill="url(#bS)" transform="scale(1.22804)"/></g><g clip-path="url(#bT)" transform="matrix(.13333 0 0 -.13333 0 2200)"><path d="M16209.4 3162.44c-4.6 0-9.2 1.43-13.2 4.38-9.8 7.24-11.7 21.08-4.5 30.79 24.4 32.95 46.9 67.01 66.7 101.3 4 7.09 11.5 11.06 19.1 11.06 3.7 0 7.5-.95 11-2.94 10.5-6.13 14.1-19.58 8.1-30.08-20.7-35.81-44.1-71.3-69.5-105.59-4.4-5.81-11-8.92-17.7-8.92" fill="url(#bU)" transform="scale(1.25669)"/></g><g clip-path="url(#bV)" transform="matrix(.13333 0 0 -.13333 0 2200)"><path d="M16202.3 3340.22c-2.9 0-5.9.56-8.7 1.82-11.1 4.82-16.1 17.69-11.3 28.82 150.5 346.88 20.8 637.77 19.5 640.7-5.1 10.97-.3 24 10.7 28.97 3 1.35 6.1 2.06 9.2 2.06 8.3 0 16.2-4.74 19.9-12.8 5.7-12.55 139.1-311.74-19.2-676.38-3.6-8.29-11.6-13.19-20.1-13.19" fill="url(#bW)" transform="scale(1.26644)"/></g></svg>